<svg width="2800" height="2800" viewBox="0 0 2800 2800" fill="none" xmlns="http://www.w3.org/2000/svg">
<path d="M1400.17 608.17C962.76 608.17 608.17 962.76 608.17 1400.17C608.17 1837.58 962.76 2192.17 1400.17 2192.17C1837.58 2192.17 2192.17 1837.58 2192.17 1400.17C2192.17 962.76 1837.58 608.17 1400.17 608.17ZM772.97 1739.53C771.55 1740.14 769.91 1739.55 769.17 1738.23C720.78 1654.29 692.07 1559.21 683.98 1462.74C668 1277.31 729.58 1090.44 851.88 950.13C1028.76 745.73 1310.54 660.45 1570.2 737.22C1604.63 747.44 1638.21 760.44 1670.44 776.19C1671.93 776.92 1672.54 778.71 1671.82 780.2C1671.14 781.6 1669.52 782.23 1668.1 781.71C1630.81 767.93 1592.46 756.86 1553.53 749.06C1412.2 720.71 1262.6 735.47 1130.59 793.03C881.97 900.92 717.62 1144.41 710.47 1415.37C707.41 1511.72 724.49 1608.78 759.23 1698.71L764.17 1711.02L766.64 1717.19L769.27 1723.28L774.51 1735.51C775.22 1737.04 774.52 1738.87 772.97 1739.53ZM1171.15 1896.7C1161.98 1895.67 1152.5 1894.42 1143.08 1892.91C1107.32 1887.19 1102.21 1878.52 1089.84 1857.58C1088.01 1854.47 1086.11 1851.26 1083.98 1847.82C1067.46 1821.19 1051.13 1777.15 1042.94 1747.51C1042.29 1745.13 1041.65 1742.78 1041.02 1740.48C1036.96 1725.62 1033.45 1712.78 1028.84 1702.53C1021.08 1685.29 1009.96 1676.55 995.79 1676.55C993.94 1676.55 992.03 1676.59 990.2 1677.05C973.55 1681.19 965.1 1692.95 960.88 1702.58C958.75 1707.44 952 1707.78 949.44 1703.13L834.39 1494.28C973.28 1366.11 1182.63 1382.79 1182.63 1382.79L1422.13 1877.43L1171.15 1896.7ZM1500.09 1903.3C1545.37 1832.49 1583.15 1734.45 1602.56 1680.66C1621.96 1626.87 1671.07 1569.6 1722.39 1570.87C1773.71 1572.15 1791.83 1593.85 1791.83 1593.85C1795.41 1646.96 1794.9 1736.83 1639.15 1880.83C1483.41 2024.83 1354.05 2020.74 1354.05 2020.74C1407.15 1999.64 1454.81 1974.11 1500.09 1903.3ZM822.64 1465.85C822.64 1465.85 817.71 1461.6 834.39 1430.96C851.07 1400.32 881.62 1313 887.75 1263.47C893.88 1213.94 896.94 1208.57 896.94 1208.57L999.07 1385C999.07 1385 918.98 1401.17 822.64 1465.85ZM786.39 1512.66C786.39 1512.66 793.75 1499 815.66 1497.85L929.81 1707.22C924.34 1704.64 918.81 1703.35 913.24 1703.35C906.72 1703.35 900.51 1705.18 895.02 1708.69L786.39 1512.66ZM1373.11 2088.15C1180.6 2088.15 1037.79 2001 982.3 1961.17C926.81 1921.34 894.9 1890.4 885.58 1874.57C876.26 1858.74 902.05 1855.17 921.83 1866.53C921.83 1866.53 915.75 1821.26 907.92 1800.32C900.09 1779.38 896.94 1768.15 906.81 1765.6C906.81 1765.6 893.11 1736.32 903.83 1727C914.56 1717.68 930 1726.62 945.2 1748.96C960.39 1771.3 1001.2 1852.74 1001.2 1852.74C1001.2 1852.74 989.11 1790.62 985.2 1758.45C981.28 1726.28 978.64 1699.43 993.71 1696.74C1008.77 1694.06 1014.64 1720.15 1023.66 1752.83C1032.68 1785.51 1049.88 1830.79 1066.98 1858.36C1084.09 1885.94 1088.85 1904.49 1139.92 1912.66C1190.98 1920.83 1242.77 1921.55 1242.77 1921.55C1242.77 1921.55 1229.11 1937.51 1228.09 1964.91C1227.07 1992.32 1266.56 2056.49 1377.54 2056.49C1488.51 2056.49 1583.75 2028.15 1626.13 2007.47C1668.51 1986.79 1699.15 1977.08 1699.15 1977.08C1699.15 1977.08 1565.62 2088.15 1373.11 2088.15ZM1957.28 1736.87C1916.93 1858.12 1824.7 1932.96 1773.36 1966.77C1768.14 1970.21 1762.3 1963.39 1766.51 1958.76C1804.44 1916.96 1865.84 1834.37 1866.9 1736.87C1868.23 1613.82 1765.54 1497.6 1721.37 1447.55C1677.2 1397.51 1642.9 1378.53 1605.11 1378.53C1567.32 1378.53 1509.83 1407.34 1472.68 1405.17C1435.54 1403 1419.96 1385.13 1419.58 1363.17C1419.2 1341.21 1424.85 1328.49 1425.11 1318.62C1425.37 1308.74 1417.02 1309.04 1404.11 1307.89C1391.2 1306.74 1381.28 1298.32 1379.37 1281.34C1377.45 1264.36 1393.15 1259.51 1393.92 1252.49C1394.68 1245.47 1363.75 1232.66 1361.88 1221.08C1360 1209.51 1377.71 1200.15 1380.09 1183.98C1382.47 1167.81 1333.45 1151.98 1333.28 1132.23C1333.11 1112.49 1343.49 1107.47 1371.2 1089.21C1398.9 1070.96 1419.32 1048.49 1418.94 1041.21C1418.56 1033.94 1401.83 1035.98 1378.22 1024.23C1354.6 1012.49 1353.71 982.49 1353.71 982.49C1371.32 998.32 1395.66 1004.06 1408.6 1001.51C1421.54 998.96 1425.58 993.85 1424.43 977.77C1423.28 961.68 1412.17 931.81 1410.64 868.49C1409.11 805.17 1438.85 774.28 1438.85 774.28C1482.13 861.26 1592.68 869.26 1653.45 867.21C1714.22 865.17 1804.6 837.08 1842.9 862.87C1881.2 888.66 1870.98 942.45 1870.98 942.45C1858.39 921.68 1839.32 899.04 1792.85 899.04C1746.39 899.04 1722.05 911.98 1649.88 916.06C1577.71 920.15 1523.58 887.13 1523.58 887.13C1620.6 973.6 1759.49 941.6 1863.32 961.34C1967.15 981.08 2003.24 1035.21 2005.96 1107.04C2008.66 1178.32 1950.02 1223.96 1949.12 1224.65C1956.77 1206.77 1966.8 1149.25 1921.88 1110.11C1876.94 1070.96 1781.96 1059.04 1698.56 1038.28C1616.45 1017.83 1558.26 972.32 1556.47 970.91C1626.97 1054.67 1824.01 1224.16 1883.75 1314.53C1943.49 1404.91 2014.73 1564.23 1957.28 1736.87ZM2044.85 1303.04C2044.85 1303.04 2086.98 1266.36 2086.81 1234.02C2086.64 1201.68 2073.88 1181.08 2073.88 1181.08C2073.88 1181.08 2084.43 1248.91 2030.56 1280.06C1976.68 1311.21 1944.26 1323.98 1944.26 1354.11C1944.26 1384.23 1976.68 1413.21 1976.68 1413.21C1976.68 1413.21 1920.87 1396.62 1917.45 1343.3C1913.88 1287.64 1996.85 1235.13 2017.54 1188.4C2038.22 1141.68 2034.13 1107.72 2025.83 1080.4C2025.83 1080.4 2082.22 1119.3 2106.05 1170.02C2129.88 1220.74 2112.26 1285.68 2044.85 1303.04Z" fill="white"/>
<path d="M1006.1 479.63L987.35 443.12L900.25 487.87L874.29 437.35L975.17 385.52L956.41 349.02L813.26 422.57L923.69 637.53L965.98 615.8L919 524.38L1006.1 479.63Z" fill="white"/>
<path d="M1242.22 279.359L1192.56 286.729L1137.5 539.209L1187.34 531.819L1198.29 474.629L1291.28 460.829L1319.59 512.199L1370.67 504.629L1242.22 279.359ZM1206.74 432.069L1225.09 338.579L1270.14 422.659L1206.74 432.069Z" fill="white"/>
<path d="M1682.31 300.26L1604.82 452.39L1598.16 282.17L1527.62 267.01L1475.2 503.12L1519.22 512.58L1560.51 326.6L1565.25 522.47L1610.39 532.17L1697.88 356.12L1656.59 542.1L1700.61 551.56L1753.02 315.45L1682.31 300.26Z" fill="white"/>
<path d="M1927.93 391.95L1811.38 603.66L1853.02 626.58L1969.58 414.88L1927.93 391.95Z" fill="white"/>
<path d="M604.13 992.36L615.84 965.4L414.66 878.03L402.95 904.99L497.82 946.19L451.99 1051.72L357.12 1010.52L345.41 1037.48L546.59 1124.86L558.3 1097.89L475.93 1062.12L521.77 956.59L604.13 992.36Z" fill="white"/>
<path d="M327.98 1096.59L322.1 1127.28L382.83 1163.72L365.4 1254.62L295.21 1267.49L288.91 1300.32L521.4 1252.55L527.35 1221.54L327.98 1096.59ZM454.31 1239L390.46 1250.19L404.61 1176.45L463.12 1212.47C475.22 1219.92 488.16 1226.45 501.97 1232.07C489.92 1233.18 474.04 1235.49 454.31 1239Z" fill="white"/>
<path d="M290.07 1347.93L288.85 1377.29L508 1386.37L509.22 1357L290.07 1347.93Z" fill="white"/>
<path d="M517.61 1523.69L506.47 1426.06L288.55 1450.92L291.88 1480.13L388.7 1469.08L392.57 1502.96C393.45 1510.75 393.74 1516.18 393.42 1519.26C392.92 1523.71 391.45 1528.39 389 1533.29C386.29 1538.89 380.15 1546.19 370.57 1555.17C365.34 1560.16 357.97 1566.47 348.46 1574.09L306.52 1608.46L310.69 1645.01L365.64 1599.86C376.26 1591.21 385.03 1582.04 391.96 1572.34C395.04 1568.04 397.95 1561.79 400.7 1553.59C411.04 1594.34 433.17 1612.78 467.09 1608.91C479.09 1607.54 489.7 1603.23 498.91 1595.98C509.36 1587.8 515.75 1576.82 518.08 1563.03C519.71 1553.82 519.55 1540.71 517.61 1523.69ZM463.67 1579.04C456.65 1579.84 449.96 1578.58 443.58 1575.25C431.32 1569.1 423.79 1553.64 420.96 1528.87L413.81 1466.22L485.68 1458.02L493.64 1527.78C497.23 1559.26 487.24 1576.35 463.67 1579.04Z" fill="white"/>
<path d="M590.479 1765.52C584.179 1752.3 574.729 1742.81 562.149 1737.05C548.779 1730.91 535.649 1730.93 522.729 1737.08C510.819 1742.77 499.879 1757.17 489.899 1780.29C459.709 1755.61 432.409 1749.09 407.999 1760.74C394.189 1767.32 383.999 1778.14 377.429 1793.19C369.459 1811.75 370.369 1831.29 380.159 1851.81C390.669 1873.84 408.759 1888.72 434.429 1896.45C427.039 1912.88 422.549 1927.55 420.969 1940.46L448.219 1947.75C450.869 1932.22 456.069 1916.96 463.789 1901.99C478.459 1904.17 495.489 1903.3 514.869 1899.39L508.199 1871.5C496.679 1874.13 485.949 1875.33 476.009 1875.09L504.119 1817.43C529.439 1836.24 551.499 1841.16 570.319 1832.19C582.829 1826.22 590.869 1816.68 594.449 1803.58C597.919 1791.02 596.599 1778.34 590.479 1765.52ZM446.289 1872C437.329 1870.68 428.759 1867.37 420.589 1862.07C411.979 1856.35 405.819 1849.6 402.099 1841.8C397.169 1831.47 396.769 1820.88 400.909 1810.02C405.049 1799.16 412.109 1791.34 422.099 1786.58C436.679 1779.62 455.999 1784.27 480.049 1800.51L446.289 1872ZM571.109 1793.44C568.799 1799.78 564.349 1804.51 557.759 1807.66C550.469 1811.14 542.769 1811.57 534.659 1808.97C529.519 1807.19 522.519 1803.31 513.659 1797.33L521.019 1780.37C525.259 1770.51 530.529 1764.07 536.819 1761.07C543.109 1758.07 549.409 1757.84 555.709 1760.37C561.999 1762.91 566.699 1767.42 569.799 1773.91C572.989 1780.6 573.429 1787.11 571.109 1793.44Z" fill="white"/>
<path d="M734.83 1993.51L677.13 1933.41L518.91 2085.32L577.42 2146.26C596.11 2165.73 613.44 2176.8 629.4 2179.49C648.11 2182.64 665.19 2176.79 680.64 2161.96C700.4 2142.98 703.67 2120.75 690.44 2095.27C711.97 2103.15 730.29 2099.85 745.4 2085.35C752.66 2078.37 757.63 2069.63 760.3 2059.14C765.4 2038.38 756.91 2016.5 734.83 1993.51ZM659.72 2140.13C654.69 2144.96 649.25 2148.16 643.4 2149.73C632.81 2152.6 621.98 2150.02 610.9 2141.99C607.7 2139.62 602.84 2135.04 596.32 2128.24L558.1 2088.44L612.32 2036.38L647.86 2073.4C657.64 2083.59 664.26 2092.24 667.71 2099.34C674.99 2114.43 672.32 2128.03 659.72 2140.13ZM722.71 2066.84C711.57 2077.54 699.17 2079.03 685.5 2071.32C680.34 2068.34 673.3 2062.2 664.36 2052.89L631.15 2018.3L678.77 1972.58L709.42 2004.5C720.45 2015.99 727.5 2024.85 730.58 2031.07C736.95 2043.77 734.33 2055.69 722.71 2066.84Z" fill="white"/>
<path d="M933.14 2190.26L948.21 2169.14L817.74 2076.1L690.39 2254.67L824.95 2350.64L840.11 2329.39L729.48 2250.49L772.74 2189.83L872.43 2260.93L887.49 2239.81L787.8 2168.71L826.61 2114.29L933.14 2190.26Z" fill="white"/>
<path d="M1058.12 2456.45L1056.89 2219.1L1027.64 2207.18L866.01 2378.17L894.95 2389.96L942.6 2337.55L1028.31 2372.47L1027.16 2443.83L1058.12 2456.45ZM959.35 2318.7L1006.15 2268.39C1015.83 2257.99 1024.77 2246.57 1032.98 2234.14C1031.71 2246.17 1030.86 2262.2 1030.44 2282.23L1028.88 2347.03L959.35 2318.7Z" fill="white"/>
<path d="M1295.34 2285.36L1274.35 2410.05C1270.23 2434.52 1263.7 2451.11 1254.75 2459.82C1244.05 2470.15 1227.07 2473.36 1203.8 2469.44C1191.34 2467.35 1181.22 2463.17 1173.43 2456.92C1164.24 2449.53 1159.04 2439.33 1157.83 2426.32C1156.93 2418.2 1157.78 2406.38 1160.39 2390.87L1181.38 2266.18L1152.39 2261.3L1131.36 2386.26C1127.5 2409.21 1127.21 2427.77 1130.51 2441.93C1137.41 2471.08 1161.18 2489.08 1201.81 2495.92C1222.9 2499.47 1240.59 2498.29 1254.87 2492.37C1270.24 2486.08 1281.82 2475.61 1289.63 2460.96C1295.39 2450.35 1299.94 2435.09 1303.29 2415.2L1324.32 2290.24L1295.34 2285.36Z" fill="white"/>
<path d="M1522.61 2310.58L1522.5 2300.61L1522.33 2284.64L1504.56 2284.84H1504.51L1346.81 2286.59L1347.1 2312.53L1419.99 2311.72L1422.13 2505.1L1451.53 2504.78L1449.38 2311.39L1522.61 2310.58Z" fill="white"/>
<path d="M1712.61 2242.48L1679.66 2250.59L1653.19 2323.56C1647.75 2338.6 1642.98 2353.08 1638.88 2366.99C1628.23 2355.68 1617.94 2345.43 1608.03 2336.22L1549.67 2282.61L1504.56 2284.84H1504.51L1522.5 2300.61L1628.34 2393.39L1650.57 2483.65L1679.11 2476.62L1656.88 2386.36L1712.61 2242.48Z" fill="white"/>
<path d="M1814.87 2183.52L1789.11 2197.69L1894.81 2389.88L1920.56 2375.71L1814.87 2183.52Z" fill="white"/>
<path d="M2121.41 2235.92L1986.96 2062.62L1964.8 2079.82L2070.4 2215.93L1872.56 2151.38L1848.94 2169.7L1983.39 2343L2005.55 2325.81L1899.85 2189.56L2097.79 2254.25L2121.41 2235.92Z" fill="white"/>
<path d="M2264 2048C2260.72 2035.81 2254.26 2025.7 2244.62 2017.67C2225.93 2002.13 2204.13 2000.39 2179.2 2012.47C2170.54 2016.64 2156.49 2026.24 2137.04 2041.27C2123.03 2052.08 2113.41 2058.73 2108.17 2061.23C2095.51 2067.31 2084.89 2066.79 2076.32 2059.66C2067.16 2052.04 2064.2 2041.9 2067.42 2029.23C2069.78 2019.66 2075.28 2009.69 2083.9 1999.33C2105.02 1973.94 2127.29 1969.02 2150.71 1984.55L2166.88 1961.74C2156.71 1953.86 2145.56 1949.24 2133.42 1947.88C2108.76 1945.28 2085.4 1957.23 2063.34 1983.75C2053.74 1995.28 2046.96 2007.33 2042.98 2019.91C2039.33 2031.58 2038.89 2042.94 2041.67 2053.99C2044.63 2065.34 2050.71 2074.84 2059.91 2082.5C2075.93 2095.83 2094.87 2097.95 2116.71 2088.85C2126.26 2084.83 2138.34 2077.24 2152.97 2066.07C2169.96 2053.09 2181.7 2044.77 2188.19 2041.13C2204.32 2031.94 2217.79 2031.84 2228.59 2040.83C2233.78 2045.15 2237.22 2050.78 2238.91 2057.74C2242.6 2072.5 2236.91 2088.95 2221.83 2107.07C2213.78 2116.74 2204.87 2124.08 2195.1 2129.09C2177.13 2138.25 2159.12 2137 2141.08 2125.34L2125.36 2147.88C2136.82 2156.98 2149.5 2162.28 2163.39 2163.79C2191.17 2166.8 2217.66 2153.16 2242.87 2122.86C2253.04 2110.63 2259.96 2097.81 2263.61 2084.39C2266.95 2071.88 2267.08 2059.75 2264 2048Z" fill="white"/>
<path d="M2200.71 1830.03L2235.4 1765.54L2212.55 1753.25L2129.41 1907.84L2152.25 1920.12L2186.78 1855.92L2357.11 1947.53L2371.03 1921.64L2200.71 1830.03Z" fill="white"/>
<path d="M2232.41 1709.75L2222.25 1737.33L2428.08 1813.13L2438.23 1785.55L2232.41 1709.75Z" fill="white"/>
<path d="M2290.91 1594.21L2306.31 1522.62L2280.95 1517.16L2244.04 1688.76L2269.4 1694.22L2284.73 1622.95L2473.8 1663.62L2479.98 1634.88L2290.91 1594.21Z" fill="white"/>
<path d="M2498.58 1365.67C2490.05 1351.42 2477.96 1341.54 2462.3 1336.02C2450.95 1331.91 2435.19 1329.7 2415.01 1329.37L2288.32 1327.32L2287.84 1356.71L2414.26 1358.76C2439.07 1359.16 2456.46 1363.13 2466.41 1370.67C2478.23 1379.7 2483.95 1396.01 2483.57 1419.6C2483.36 1432.23 2480.75 1442.87 2475.74 1451.51C2469.81 1461.71 2460.51 1468.38 2447.83 1471.52C2439.93 1473.63 2428.12 1474.56 2412.39 1474.3L2285.97 1472.26L2285.49 1501.65L2412.19 1503.7C2435.46 1504.08 2453.86 1501.58 2467.36 1496.19C2495.15 1485 2509.37 1458.8 2510.04 1417.6C2510.39 1396.21 2506.57 1378.9 2498.58 1365.67Z" fill="white"/>
<path d="M2484.03 1194.53L2478.05 1165.76L2288.7 1205.13L2273.79 1133.43L2248.39 1138.72L2284.13 1310.57L2309.53 1305.28L2294.69 1233.91L2484.03 1194.53Z" fill="white"/>
<path d="M2383.05 882.88L2359.08 893.23L2412.96 1017.98L2344.56 1047.51L2296.01 935.1L2272.2 945.39L2320.75 1057.8L2259.38 1084.3L2207.5 964.18L2183.68 974.47L2247.22 1121.57L2448.58 1034.61L2383.05 882.88Z" fill="white"/>
<path d="M2539.2 918.99C2508.21 845.74 2469.87 775.09 2425.22 709.01C2381 643.55 2330.21 582 2274.28 526.07C2218.34 470.13 2156.79 419.34 2091.34 375.12C2025.25 330.48 1954.6 292.13 1881.35 261.15C1728.94 196.69 1567.05 164 1400.17 164C1233.3 164 1071.41 196.69 919 261.15C845.75 292.13 775.1 330.48 709.01 375.12C643.56 419.34 582.01 470.13 526.07 526.07C470.13 582 419.35 643.55 375.13 709.01C330.48 775.09 292.13 845.74 261.15 918.99C196.69 1071.4 164 1233.29 164 1400.17C164 1567.05 196.69 1728.94 261.15 1881.35C292.13 1954.6 330.48 2025.25 375.13 2091.33C419.35 2156.79 470.13 2218.34 526.07 2274.27C582.01 2330.21 643.56 2381 709.01 2425.22C775.1 2469.86 845.75 2508.21 919 2539.19C1071.41 2603.65 1233.3 2636.34 1400.17 2636.34C1567.05 2636.34 1728.94 2603.65 1881.35 2539.19C1954.6 2508.21 2025.25 2469.86 2091.34 2425.22C2156.79 2381 2218.34 2330.21 2274.28 2274.27C2330.21 2218.34 2381 2156.79 2425.22 2091.33C2469.87 2025.25 2508.21 1954.6 2539.2 1881.35C2603.66 1728.94 2636.34 1567.05 2636.34 1400.17C2636.34 1233.29 2603.66 1071.4 2539.2 918.99ZM1400.17 2616.34C729.58 2616.34 184 2070.77 184 1400.17C184 729.57 729.58 184 1400.17 184C2070.77 184 2616.34 729.57 2616.34 1400.17C2616.34 2070.77 2070.77 2616.34 1400.17 2616.34Z" fill="white"/>
<path d="M2128.51 641.46L2143.85 688.66H2193.48L2153.33 717.83L2168.67 765.03L2128.51 735.86L2088.36 765.03L2103.7 717.83L2063.55 688.66H2113.18L2128.51 641.46Z" fill="white"/>
<path d="M670.52 643.18L685.86 690.38H735.49L695.34 719.55L710.68 766.75L670.52 737.58L630.37 766.75L645.71 719.55L605.56 690.38H655.19L670.52 643.18Z" fill="white"/>
</svg>
