<svg xmlns="http://www.w3.org/2000/svg" version="1.1" xmlns:xlink="http://www.w3.org/1999/xlink" width="512" height="512" x="0" y="0" viewBox="0 0 32 32" style="enable-background:new 0 0 512 512" xml:space="preserve" class=""><g><path d="M24 17c-3.86 0-7 3.14-7 7s3.14 7 7 7 7-3.14 7-7-3.14-7-7-7zm-.67 6h1.33c1.29 0 2.33 1.05 2.33 2.33 0 1.17-.87 2.14-2 2.3V28c0 .55-.45 1-1 1s-1-.45-1-1v-.33h-1c-.55 0-1-.45-1-1s.45-1 1-1h2.67c.18 0 .33-.15.33-.33s-.15-.33-.33-.33h-1.33c-1.29 0-2.33-1.05-2.33-2.33 0-1.17.87-2.14 2-2.3v-.37c0-.55.45-1 1-1s1 .45 1 1v.33h1c.55 0 1 .45 1 1s-.45 1-1 1h-2.67c-.18 0-.33.15-.33.33s.15.33.33.33z" fill="#440861" opacity="1" data-original="#000000" class=""></path><path d="M15 6c-4.96 0-9 4.04-9 9s4.04 9 9 9c0-4.96 4.04-9 9-9 0-4.96-4.04-9-9-9zm1 9c0 .33-.17.65-.45.83l-4.5 3c-.17.11-.36.17-.55.17-.32 0-.64-.16-.83-.45-.31-.46-.18-1.08.28-1.39l4.05-2.7V10.5c0-.55.45-1 1-1s1 .45 1 1z" fill="#440861" opacity="1" data-original="#000000" class=""></path><path d="M15 26C8.93 26 4 21.07 4 15S8.93 4 15 4s11 4.93 11 11c0 .08-.01.15-.01.23 1.06.24 2.05.67 2.93 1.24.05-.48.08-.98.08-1.47 0-7.72-6.28-14-14-14S1 7.28 1 15s6.28 14 14 14c.5 0 .99-.03 1.47-.08-.58-.88-1-1.87-1.24-2.93-.08 0-.15.01-.23.01z" fill="#440861" opacity="1" data-original="#000000" class=""></path></g></svg>