<svg xmlns="http://www.w3.org/2000/svg" version="1.1" xmlns:xlink="http://www.w3.org/1999/xlink" width="512" height="512" x="0" y="0" viewBox="0 0 511.981 511.981" style="enable-background:new 0 0 512 512" xml:space="preserve"><g><path d="m410.149 308.812-81.21 81.21L167.002 390v-30h135.261c.001-33.101-26.854-59.972-59.971-59.972H119.374L16.979 387.423l85.091 124.559L150.197 480h188.617l156.188-171.188c-23.432-23.432-61.422-23.432-84.853 0zM272.262 0c-74.44 0-135 60.56-135 135s60.56 135 135 135 135-60.56 135-135-60.56-135-135-135zm74.74 150h-90V60h30v60h60z" fill="#440861" opacity="1" data-original="#000000"></path></g></svg>