<svg width="2047" height="2035" viewBox="0 0 2047 2035" fill="none" xmlns="http://www.w3.org/2000/svg">
<path d="M1357.14 1144.52L1211.78 1300.09C1211.78 1300.09 1107.95 1136.4 1005.48 1031.49C941.14 965.62 807.1 911.49 807.1 911.49C807.1 911.49 862.76 837.96 906.16 799.4C949.56 760.85 1019.44 787.06 1065.39 824.85C1111.35 862.64 1200.54 986.89 1200.54 986.89C1200.54 986.89 1259.77 771.06 1396.63 512.68C1533.49 254.3 1803.35 0 1803.35 0L1829.14 47.74C1829.14 47.74 1680.54 249.19 1557.99 511.65C1435.44 774.11 1385.06 933.8 1357.14 1144.52Z" fill="white"/>
<path d="M1117.82 1257.2C1080.83 1198.95 1021.16 1174.48 880.88 1169.03C803.32 1166.02 689.17 1171.61 653.39 1142.05C644.91 1135.69 639.44 1128.14 636.96 1119.39C635.4 1113.86 635.45 1108.04 636.25 1102.35C641.9 1061.8 688.88 1022.65 688.88 1022.65C773.29 1037.25 845.84 1028.69 901.31 1003.21C860.85 979.12 819.87 960.52 801.74 952.66C746.08 971.9 681.64 944.57 649.05 871.67C600.63 773.61 643.06 623.78 766.5 623.33C848.82 621.88 887.89 685.51 895.86 756.78C913.26 747.15 937.35 740.45 958.82 740.45C974.71 740.45 994.8 744.1 1011.61 749.29C1004.6 726.17 990.92 701.38 977.18 677.02C976.99 676.69 976.78 676.37 976.57 676.05C972.36 668.72 968.32 662.29 964.61 656.75C1019.45 648.81 1101.48 624.86 1101.48 624.86L1089.73 577.03C1089.73 577.03 1062.16 583.5 1015.35 591.81C968.54 600.13 897.24 591.81 897.24 591.81C796.21 529.82 650.57 548.31 576.54 636.95C488.38 734.56 489.22 912.52 637.05 1003.92C637.05 1003.92 561.67 1071.92 557.48 1076.61C431.18 1218.05 624.37 1254.48 624.37 1254.48C536.54 1291.24 433.56 1407.33 504.71 1509.46C608.68 1647.52 915.81 1596.9 1029.22 1516.61C1123.95 1449.54 1166.31 1332.62 1117.82 1257.2ZM997.31 1434.05C948.51 1491.6 866.49 1516.16 781.56 1512.26C597.99 1503.84 519.35 1386.21 683.27 1259.75C768.17 1282.43 954.72 1246.14 1012.12 1317.12C1043.78 1356.26 1019.48 1404.97 997.31 1434.05Z" fill="white"/>
<path d="M2046.68 1275.07L1690.14 339.27L1615.7 488.69L1739.96 823.84H1474.25L1447.36 905.539H1770.26L1907.27 1275.07H2046.68Z" fill="white"/>
<path d="M1839.5 1207.35C1829.81 1294.67 1807.59 1379.66 1773.12 1461.06C1727.03 1569.91 1661.08 1667.62 1577.12 1751.48C1493.15 1835.33 1395.32 1901.19 1286.32 1947.23C1173.36 1994.95 1053.5 2019.15 930.07 2019.15C806.63 2019.15 686.77 1994.95 573.81 1947.23C464.82 1901.19 366.98 1835.33 283.02 1751.48C199.05 1667.62 133.1 1569.91 87.01 1461.06C39.23 1348.25 15 1228.54 15 1105.27C15 982.001 39.23 862.291 87.01 749.481C133.11 640.631 199.05 542.921 283.02 459.061C366.98 375.201 464.82 309.341 573.81 263.301C686.77 215.581 806.63 191.391 930.07 191.391C1053.5 191.391 1173.36 215.581 1286.32 263.301C1343.54 287.471 1397.68 317.101 1448.35 351.931C1451.16 347.841 1454.02 343.731 1456.92 339.611C1405.4 304.191 1350.34 274.061 1292.16 249.481C1177.34 200.981 1055.52 176.391 930.07 176.391C804.62 176.391 682.79 200.981 567.97 249.481C457.19 296.281 357.75 363.221 272.42 448.451C187.08 533.671 120.05 632.991 73.19 743.631C24.63 858.301 0 979.981 0 1105.27C0 1230.56 24.63 1352.23 73.19 1466.91C120.05 1577.55 187.08 1676.86 272.42 1762.09C357.75 1847.32 457.19 1914.26 567.97 1961.05C682.79 2009.56 804.62 2034.15 930.07 2034.15C1055.52 2034.15 1177.34 2009.56 1292.16 1961.05C1402.94 1914.26 1502.38 1847.32 1587.72 1762.09C1673.05 1676.86 1740.08 1577.55 1786.94 1466.91C1818.19 1393.11 1839.53 1316.43 1850.77 1237.74L1839.5 1207.35Z" fill="white"/>
<path d="M1605.34 945.54H1589.8C1602.24 996.77 1608.83 1050.27 1608.83 1105.27C1608.83 1479.05 1304.33 1783.15 930.07 1783.15C555.8 1783.15 251.31 1479.05 251.31 1105.27C251.31 731.48 555.8 427.39 930.07 427.39C1079 427.39 1216.88 475.54 1328.92 557.08C1331.21 552.46 1333.53 547.83 1335.88 543.17C1293.78 512.76 1248.38 487.23 1200.11 466.84C1114.57 430.71 1023.72 412.39 930.07 412.39C836.41 412.39 745.56 430.71 660.02 466.84C577.41 501.74 503.22 551.69 439.51 615.32C375.8 678.95 325.77 753.05 290.83 835.56C254.65 920.99 236.31 1011.73 236.31 1105.27C236.31 1198.8 254.65 1289.55 290.83 1374.97C325.77 1457.48 375.8 1531.58 439.51 1595.21C503.22 1658.84 577.41 1708.8 660.02 1743.7C745.56 1779.83 836.41 1798.15 930.07 1798.15C1023.72 1798.15 1114.57 1779.83 1200.11 1743.7C1282.72 1708.8 1356.91 1658.84 1420.62 1595.21C1484.34 1531.58 1534.36 1457.48 1569.3 1374.97C1605.48 1289.55 1623.83 1198.8 1623.83 1105.27C1623.83 1050.92 1617.63 997.51 1605.34 945.54Z" fill="white"/>
<path d="M348.59 1716.99C342.66 1713.92 331.63 1706.98 321.48 1696.3C310.1 1684.33 303.48 1671.87 302.77 1657.8C302.21 1645.37 307.7 1632.11 318.79 1621.57C340.01 1601.39 371.04 1602.94 396.25 1629.46C404.95 1638.61 410.07 1647.59 411.83 1652.4L401.88 1656.95C399.66 1651.02 395.91 1644.53 388.32 1636.56C370.03 1617.32 347.32 1615 329.48 1631.97C311.42 1649.14 312.14 1671.24 329.76 1689.78C336.12 1696.47 341.31 1700.24 344.6 1701.58L365.82 1681.4L350.65 1665.44L358.04 1658.41L382.8 1684.46L348.59 1716.99Z" fill="white"/>
<path d="M434.6 1669.39L397.82 1714.6C384.03 1731.56 386.56 1745.63 397.86 1754.83C410.29 1764.94 424.53 1764.12 438.13 1747.39L474.91 1702.18L485.96 1711.17L449.73 1755.71C430.7 1779.11 409.28 1777.47 390.95 1762.55C373.62 1748.45 367.73 1729.01 387.04 1705.27L423.54 1660.39L434.6 1669.39Z" fill="white"/>
<path d="M512.17 1727.21L456.99 1808.45L445.2 1800.45L500.38 1719.21L512.17 1727.21Z" fill="white"/>
<path d="M528.16 1737.83L540.47 1745.01L496.35 1820.65L536.63 1844.14L531.27 1853.33L478.69 1822.66L528.16 1737.83Z" fill="white"/>
<path d="M582.4 1773.57C590.78 1775.83 600.47 1779.14 610.69 1783.65C629.21 1791.81 640.63 1801.62 646.2 1812.67C652.01 1823.99 652.61 1836.67 646.2 1851.2C639.74 1865.87 629.26 1875.58 616.43 1879.8C603.25 1884.02 585.84 1881.77 566.43 1873.22C557.1 1869.11 549.72 1865.38 543.49 1861.84L582.4 1773.57ZM560.26 1858.71C563.34 1860.55 568.02 1862.77 573.06 1864.99C600.76 1877.2 621.69 1869.86 632.38 1845.59C641.87 1824.46 634.47 1805.11 607.21 1793.1C600.54 1790.16 595.27 1788.48 591.57 1787.64L560.26 1858.71Z" fill="white"/>
<path d="M694.59 1888.79L676.03 1915.96L661.9 1912.39L722.09 1826.32L738.41 1830.45L750.42 1934.79L735.82 1931.1L732.1 1898.3L694.59 1888.79ZM731.86 1888L728.28 1857.94C727.5 1851.13 727.36 1845.08 727.18 1839.18L726.87 1839.1C723.91 1844.21 720.84 1849.75 717.17 1854.98L699.84 1879.9L731.86 1888Z" fill="white"/>
<path d="M841.28 1945.78C836 1947.43 825.26 1948.35 812.1 1946.6C781.61 1942.54 761.13 1922.17 765.4 1890.11C769.48 1859.49 795.16 1842.04 828.7 1846.51C842.02 1848.28 850.34 1852.04 853.8 1854.26L848.9 1864.04C844.07 1861.05 836.76 1858.31 827.77 1857.11C802.42 1853.73 783.62 1866.07 780.22 1891.64C777.03 1915.61 790.25 1932.81 816.41 1936.29C825.08 1937.44 833.95 1937.01 839.9 1935.3L841.28 1945.78Z" fill="white"/>
<path d="M952.67 1950.36C947.6 1952.58 937.03 1954.66 923.75 1954.36C893 1953.65 870.42 1935.64 871.16 1903.31C871.87 1872.43 895.49 1852.28 929.31 1853.06C942.74 1853.37 951.42 1856.19 955.11 1858.03L951.31 1868.29C946.18 1865.84 938.62 1863.92 929.55 1863.71C903.98 1863.12 886.65 1877.44 886.05 1903.22C885.5 1927.4 900.52 1943.05 926.9 1943.65C935.64 1943.85 944.42 1942.45 950.14 1940.1L952.67 1950.36Z" fill="white"/>
<path d="M965.33 1855.67C972.33 1853.9 982.58 1852.14 992.09 1851.32C1007.09 1850.03 1017.15 1851.8 1024.23 1856.6C1029.93 1860.5 1033.73 1866.9 1034.39 1874.59C1035.49 1887.37 1027.19 1896.71 1016.2 1901.16L1016.24 1901.6C1024.69 1903.51 1030.29 1910.05 1033.74 1919.99C1038.46 1933.33 1041.85 1942.55 1044.43 1946.13L1029.91 1947.38C1027.89 1944.63 1024.76 1936.56 1020.81 1924.62C1016.42 1911.4 1010.02 1906.83 997.24 1907.49L984.01 1908.63L987.65 1951.02L973.62 1952.23L965.33 1855.67ZM983.19 1899.04L997.55 1897.81C1012.55 1896.52 1021.43 1888.3 1020.47 1877.12C1019.39 1864.49 1008.75 1859.85 993.91 1861.12C987.14 1861.7 982.49 1862.54 980.13 1863.33L983.19 1899.04Z" fill="white"/>
<path d="M1109.75 1887.25L1068.23 1895.11L1074.81 1929.9L1121.26 1921.11L1123.24 1931.56L1062.79 1943L1044.52 1846.51L1102.58 1835.52L1104.56 1845.97L1060.5 1854.31L1066.27 1884.8L1107.79 1876.94L1109.75 1887.25Z" fill="white"/>
<path d="M1115.82 1834.32C1123.62 1830.51 1133.1 1826.64 1143.76 1823.31C1163.08 1817.28 1178.13 1817.16 1189.59 1821.83C1201.4 1826.54 1210.2 1835.7 1214.93 1850.86C1219.7 1866.16 1218.2 1880.37 1211.31 1891.98C1204.15 1903.83 1189.56 1913.57 1169.31 1919.89C1159.57 1922.93 1151.56 1924.97 1144.55 1926.4L1115.82 1834.32ZM1155.13 1913.03C1158.66 1912.39 1163.65 1910.98 1168.9 1909.34C1197.8 1900.32 1208.74 1881.04 1200.84 1855.72C1194.09 1833.55 1175.8 1823.85 1147.37 1832.72C1140.42 1834.89 1135.33 1837.09 1132 1838.89L1155.13 1913.03Z" fill="white"/>
<path d="M1224.08 1795.26L1261.57 1886.03L1248.4 1891.47L1210.91 1800.7L1224.08 1795.26Z" fill="white"/>
<path d="M1264.53 1788.68L1234.84 1803.51L1230.02 1793.86L1302.29 1757.77L1307.11 1767.42L1277.27 1782.32L1316.33 1860.53L1303.58 1866.89L1264.53 1788.68Z" fill="white"/>
<path d="M1381.88 1768.95L1346.09 1791.42L1364.91 1821.41L1404.95 1796.28L1410.61 1805.29L1358.51 1838L1306.3 1754.82L1356.35 1723.4L1362.01 1732.41L1324.03 1756.25L1340.53 1782.54L1376.32 1760.07L1381.88 1768.95Z" fill="white"/>
<path d="M1368.25 1717.43C1374.13 1711.05 1381.55 1703.99 1390.27 1697.01C1406.07 1684.37 1420.05 1678.78 1432.42 1678.95C1445.14 1679.04 1456.66 1684.37 1466.59 1696.77C1476.6 1709.28 1480.37 1723.06 1478.18 1736.39C1475.83 1750.03 1465.77 1764.42 1449.22 1777.67C1441.26 1784.04 1434.54 1788.86 1428.52 1792.74L1368.25 1717.43ZM1433.51 1776.44C1436.56 1774.56 1440.7 1771.43 1445 1767.99C1468.64 1749.07 1471.81 1727.13 1455.24 1706.42C1440.89 1688.23 1420.32 1685.84 1397.06 1704.45C1391.37 1709 1387.44 1712.9 1384.99 1715.79L1433.51 1776.44Z" fill="white"/>
<path d="M1482.99 1628.61L1460.34 1652.87L1452.46 1645.51L1507.59 1586.45L1515.47 1593.81L1492.71 1618.19L1556.61 1677.85L1546.89 1688.27L1482.99 1628.61Z" fill="white"/>
<path d="M1511.47 1583.19C1514.85 1576.81 1520.42 1568.03 1526.2 1560.43C1535.31 1548.44 1543.37 1542.16 1551.67 1540.14C1558.38 1538.53 1565.68 1540 1571.83 1544.67C1582.04 1552.42 1583.4 1564.84 1579.33 1575.98L1579.68 1576.24C1586.76 1571.25 1595.37 1571.48 1605.06 1575.59C1618.12 1581.04 1627.23 1584.7 1631.62 1585.19L1622.81 1596.79C1619.41 1596.45 1611.33 1593.36 1599.82 1588.28C1587.07 1582.66 1579.39 1584.35 1571.3 1594.27L1563.27 1604.84L1597.15 1630.57L1588.63 1641.79L1511.47 1583.19ZM1555.61 1599.02L1564.32 1587.55C1573.43 1575.56 1573.29 1563.46 1564.35 1556.67C1554.26 1549 1543.68 1553.78 1534.67 1565.64C1530.56 1571.06 1528.07 1575.06 1527.06 1577.34L1555.61 1599.02Z" fill="white"/>
<path d="M1625.32 1537.22L1646.12 1562.71L1638.69 1575.25L1573.17 1493.17L1581.75 1478.68L1685.22 1496.69L1677.55 1509.64L1645.03 1503.93L1625.32 1537.22ZM1635.11 1501.25L1605.26 1496.18C1598.51 1495 1592.67 1493.43 1586.95 1491.92L1586.78 1492.2C1590.84 1496.49 1595.28 1501 1599.27 1505.99L1618.27 1529.66L1635.11 1501.25Z" fill="white"/>
<path d="M1609.93 1424.86L1698.3 1467.69L1692.09 1480.51L1603.72 1437.68L1609.93 1424.86Z" fill="white"/>
<path d="M1711.66 1441.26L1619.85 1406.41L1625.37 1391.88L1684.17 1376.97C1697.75 1373.64 1709.72 1371.26 1720.9 1370.13L1720.94 1369.62C1708.22 1366.18 1696.94 1362.24 1682.63 1356.81L1644.22 1342.23L1648.93 1329.82L1740.74 1364.67L1735.68 1377.99L1676.8 1392.69C1663.88 1395.93 1650.81 1398.75 1638.97 1399.97L1638.93 1400.48C1650.8 1404.12 1661.89 1408.16 1677.14 1413.95L1716.37 1428.84L1711.66 1441.26Z" fill="white"/>
<path d="M1657.47 1297.98L1752.01 1324.56L1748.15 1338.27L1653.61 1311.69L1657.47 1297.98Z" fill="white"/>
<path d="M1758.49 1297.98L1661.97 1279.87L1664.84 1264.59L1720.09 1239.54C1732.87 1233.87 1744.23 1229.41 1755.04 1226.33L1754.99 1225.83C1741.86 1224.68 1730.06 1222.8 1715.02 1219.98L1674.64 1212.4L1677.09 1199.35L1773.61 1217.46L1770.98 1231.46L1715.61 1256.32C1703.47 1261.78 1691.1 1266.87 1679.66 1270.16L1679.71 1270.66C1692.03 1272.15 1703.66 1274.17 1719.7 1277.17L1760.94 1284.91L1758.49 1297.98Z" fill="white"/>
<path d="M1777.3 1100.77C1779.13 1107.2 1781.63 1119.98 1780.81 1134.69C1779.89 1151.18 1775.35 1164.54 1765.59 1174.7C1756.92 1183.62 1743.5 1188.71 1728.23 1187.86C1698.99 1186.23 1678.86 1162.57 1680.9 1126.04C1681.6 1113.43 1684.64 1103.55 1686.93 1098.98L1697.06 1103.11C1694.26 1108.79 1692.11 1115.97 1691.5 1126.96C1690.02 1153.47 1703.89 1171.59 1728.48 1172.96C1753.36 1174.35 1768.97 1158.68 1770.39 1133.14C1770.9 1123.93 1770.09 1117.56 1768.82 1114.24L1739.58 1112.61L1738.35 1134.59L1728.17 1134.02L1730.17 1098.14L1777.3 1100.77Z" fill="white"/>
<path d="M213.33 1339.11C217.33 1343.55 224.27 1352.83 228.93 1364.98C234.16 1378.6 234.99 1391.14 229.96 1403.18C225.46 1413.79 215.29 1423.21 201.27 1428.59C174.44 1438.89 147.69 1427.87 136.1 1397.7C132.1 1387.29 131.19 1378.14 131.58 1373.55L142.19 1372.85C141.77 1378.53 142.47 1385.15 145.96 1394.23C154.37 1416.12 173.47 1425.18 196.03 1416.52C218.86 1407.76 227.11 1388.96 219.02 1367.87C216.1 1360.26 213.03 1355.46 210.67 1353.31L183.84 1363.61L190.81 1381.77L181.47 1385.36L170.09 1355.72L213.33 1339.11Z" fill="white"/>
<path d="M114.18 1326.5L169.78 1313.06C190.63 1308.02 197.27 1296.56 194.25 1284.05C190.92 1270.29 179.57 1263.47 159 1268.45L103.4 1281.89L100.44 1269.66L155.2 1256.42C183.97 1249.46 199.31 1261.79 204.22 1282.09C208.86 1301.27 201.51 1318.35 172.32 1325.4L117.14 1338.74L114.18 1326.5Z" fill="white"/>
<path d="M93.29 1222.8L188.65 1208.78L190.48 1221.23L95.1201 1235.25L93.29 1222.8Z" fill="white"/>
<path d="M89.0201 1189.37L88.1201 1176.82L173.85 1170.68L170.91 1129.6L181.32 1128.85L185.16 1182.48L89.0201 1189.37Z" fill="white"/>
<path d="M85.8299 1113.42C84.8499 1105.79 84.3599 1096.76 84.7699 1086.9C85.4999 1069.04 90.3099 1056.5 98.3699 1048.38C106.59 1039.99 117.93 1035.44 133.51 1036.08C149.23 1036.72 161.88 1042.25 170.38 1051.47C179.01 1060.98 183.26 1076.04 182.49 1094.76C182.12 1103.76 181.4 1111.03 180.42 1117.29L85.8299 1113.42ZM171.5 1104.47C172.06 1101.34 172.39 1096.78 172.59 1091.92C173.68 1065.2 159.41 1050.3 133.4 1049.24C110.69 1048.17 95.7299 1060.44 94.6499 1086.73C94.3899 1093.16 94.7599 1098.04 95.3399 1101.36L171.5 1104.47Z" fill="white"/>
<path d="M163 971.751L190.47 988.021L187.72 1000.59L100.62 947.831L103.8 933.301L204.98 921.801L202.13 934.791L170.31 938.361L163 971.751ZM160.29 938.651L131.14 942.071C124.54 942.821 118.64 942.991 112.89 943.191L112.83 943.471C117.97 946.061 123.53 948.741 128.83 951.951L154.05 967.141L160.29 938.651Z" fill="white"/>
<path d="M228.86 841.711C229.57 846.651 228.7 856.181 224.87 867.261C215.99 892.941 193.14 906.521 163.13 896.141C134.48 886.231 121.97 860.271 131.74 832.021C135.62 820.801 140.58 814.351 143.27 811.801L151.84 818.091C148.18 821.671 144.36 827.461 141.75 835.031C134.37 856.381 143.11 875.291 167.03 883.571C189.46 891.331 208.09 883.401 215.71 861.371C218.23 854.071 219.27 846.261 218.61 840.741L228.86 841.711Z" fill="white"/>
<path d="M267.39 748.861C267.54 753.851 265.6 763.221 260.54 773.801C248.82 798.311 224.58 809.231 195.94 795.541C168.59 782.461 159.09 755.261 171.98 728.291C177.1 717.581 182.75 711.731 185.72 709.501L193.52 716.721C189.48 719.861 185.04 725.191 181.58 732.411C171.84 752.791 178.39 772.571 201.23 783.491C222.65 793.731 242.05 787.951 252.11 766.921C255.44 759.951 257.35 752.311 257.32 746.741L267.39 748.861Z" fill="white"/>
<path d="M199.43 682.651C201.79 676.711 205.91 668.491 210.38 661.341C217.43 650.061 224.23 644.031 231.82 641.861C237.96 640.131 245.05 641.191 251.48 645.211C262.15 651.881 265.06 663.141 262.67 673.451L263.03 673.681C269.08 668.861 277.25 668.741 286.95 672.101C300.02 676.551 309.11 679.541 313.33 679.811L306.51 690.731C303.25 690.551 295.2 688.051 283.65 683.871C270.86 679.251 263.81 681.091 257.46 690.441L251.25 700.381L286.66 722.501L280.07 733.051L199.43 682.651ZM243.26 695.361L250 684.571C257.05 673.291 255.33 662.271 245.99 656.441C235.44 649.851 226.06 654.611 219.09 665.771C215.91 670.861 214.07 674.611 213.42 676.731L243.26 695.361Z" fill="white"/>
<path d="M319.31 598.001L296.37 627.441L323.77 648.801L349.44 615.871L357.67 622.291L324.27 665.151L248.26 605.901L280.35 564.741L288.58 571.161L264.23 602.401L288.25 621.121L311.19 591.681L319.31 598.001Z" fill="white"/>
<path d="M303.01 540.231C307.41 533.931 313.12 526.901 320.04 519.871C332.58 507.131 344.56 501.071 355.98 500.471C367.7 499.771 379.16 504.021 390.27 514.961C401.48 525.991 407.15 538.591 407.25 551.121C407.25 563.961 400.29 577.971 387.15 591.331C380.83 597.751 375.41 602.651 370.49 606.631L303.01 540.231ZM372.48 591.141C374.99 589.201 378.3 586.041 381.71 582.571C400.47 563.511 399.89 542.891 381.34 524.631C365.23 508.581 345.91 507.621 327.46 526.381C322.95 530.971 319.94 534.831 318.15 537.681L372.48 591.141Z" fill="white"/>
<path d="M389.76 455.961L451.97 529.581L442.36 537.701L380.15 464.081L389.76 455.961Z" fill="white"/>
<path d="M437.13 432.341L413.36 449.501L407.17 440.921L465.03 399.161L471.22 407.741L447.34 424.981L497.56 494.551L487.36 501.921L437.13 432.341Z" fill="white"/>
<path d="M554.82 405.511L522.53 424.221L539.95 454.291L576.08 433.351L581.31 442.381L534.29 469.631L485.96 386.231L531.12 360.061L536.35 369.091L502.08 388.951L517.35 415.311L549.64 396.601L554.82 405.511Z" fill="white"/>
<path d="M561.35 345.851C567.79 341.651 575.72 337.281 584.77 333.361C601.17 326.251 614.55 325.121 625.36 328.851C636.49 332.601 645.52 340.841 651.72 355.141C657.98 369.571 658.51 383.371 653.9 395.031C649.09 406.941 637.38 417.311 620.19 424.761C611.92 428.341 605.06 430.851 599.01 432.701L561.35 345.851ZM606.67 419.091C609.73 418.231 613.98 416.541 618.44 414.611C642.97 403.971 650.18 384.641 639.82 360.761C630.91 339.841 613.35 331.711 589.21 342.181C583.31 344.741 579.07 347.201 576.34 349.161L606.67 419.091Z" fill="white"/>
<path d="M716.11 298.822L687.72 306.122L685.08 295.872L754.19 278.102L756.83 288.352L728.3 295.692L749.67 378.782L737.48 381.912L716.11 298.822Z" fill="white"/>
<path d="M779.04 274.832C785.1 272.782 794.02 270.592 802.37 269.352C815.53 267.402 824.53 268.672 831.11 273.052C836.41 276.602 840.2 282.692 841.31 290.192C843.15 302.642 836.47 312.162 827.07 317.022L827.13 317.442C834.72 318.922 840.11 325.062 843.84 334.632C848.92 347.472 852.54 356.332 855.07 359.712L842.34 361.592C840.37 358.992 837.05 351.242 832.75 339.742C827.97 327.002 822.01 322.832 810.77 324.062L799.17 325.782L805.28 367.092L792.97 368.912L779.04 274.832ZM797.78 316.442L810.37 314.582C823.53 312.632 830.81 304.182 829.19 293.292C827.37 280.982 817.66 276.932 804.65 278.852C798.71 279.732 794.67 280.762 792.63 281.642L797.78 316.442Z" fill="white"/>
<path d="M888.53 327.371L879.49 357.991L866.63 358.401L896.44 261.021L911.3 260.551L947.24 355.841L933.95 356.261L922.7 326.291L888.53 327.371ZM919.95 316.641L909.49 289.221C907.15 283.001 905.53 277.331 903.93 271.801L903.64 271.811C902.39 277.431 901.15 283.481 899.34 289.401L890.79 317.571L919.95 316.641Z" fill="white"/>
<path d="M983.66 261.942L978.46 358.182L965.89 357.502L971.09 261.262L983.66 261.942Z" fill="white"/>
<path d="M1004.76 359.44L1018.71 264.07L1032.29 266.06L1055.66 318.76C1060.96 330.95 1065.15 341.83 1068.11 352.23L1068.56 352.15C1069.29 339.25 1070.7 327.61 1072.88 312.75L1078.71 272.85L1090.31 274.55L1076.36 369.92L1063.91 368.1L1040.71 315.28C1035.61 303.7 1030.84 291.87 1027.68 280.86L1027.23 280.94C1026.18 293.07 1024.65 304.55 1022.33 320.4L1016.37 361.15L1004.76 359.44Z" fill="white"/>
<path d="M1136.62 285.482L1113.98 379.161L1101.75 376.201L1124.39 282.521L1136.62 285.482Z" fill="white"/>
<path d="M1142.14 385.18L1173.31 293.98L1186.3 298.42L1199.62 354.51C1202.6 367.47 1204.73 378.92 1205.73 389.69H1206.18C1209.26 377.14 1212.78 365.95 1217.64 351.75L1230.68 313.59L1241.78 317.38L1210.61 408.58L1198.7 404.51L1185.56 348.34C1182.67 336.02 1180.14 323.52 1179.05 312.11H1178.6C1175.35 323.84 1171.73 334.85 1166.55 350.01L1153.23 388.98L1142.14 385.18Z" fill="white"/>
<path d="M1307.98 452.071C1302.03 451.521 1290.64 449.401 1278.97 443.631C1265.89 437.161 1256.77 428.511 1252.31 416.251C1248.42 405.401 1249.51 391.581 1256.17 378.121C1268.91 352.351 1296.05 342.321 1325.02 356.651C1335.02 361.591 1341.89 367.701 1344.72 371.341L1337.4 379.051C1333.86 374.591 1328.86 370.201 1320.14 365.891C1299.12 355.491 1278.94 361.791 1268.22 383.451C1257.38 405.371 1264.05 424.781 1284.31 434.801C1291.62 438.411 1297.12 439.861 1300.32 439.841L1313.06 414.071L1295.63 405.451L1300.07 396.481L1328.53 410.551L1307.98 452.071Z" fill="white"/>
<path d="M250.25 1544.56C260.191 1544.56 268.25 1536.5 268.25 1526.56C268.25 1516.62 260.191 1508.56 250.25 1508.56C240.309 1508.56 232.25 1516.62 232.25 1526.56C232.25 1536.5 240.309 1544.56 250.25 1544.56Z" fill="white"/>
</svg>
