<?xml version="1.0" encoding="UTF-8"?>
<!DOCTYPE svg PUBLIC "-//W3C//DTD SVG 1.1//EN" "http://www.w3.org/Graphics/SVG/1.1/DTD/svg11.dtd">
<svg xmlns="http://www.w3.org/2000/svg" version="1.1" width="1990px" height="1558px" style="shape-rendering:geometricPrecision; text-rendering:geometricPrecision; image-rendering:optimizeQuality; fill-rule:evenodd; clip-rule:evenodd" xmlns:xlink="http://www.w3.org/1999/xlink">
<g><path style="opacity:0.883" fill="#d8b468" d="M 972.5,51.5 C 986.183,51.1675 999.85,51.5008 1013.5,52.5C 1010.02,57.1451 1006.36,61.6451 1002.5,66C 996.167,66.6667 989.833,66.6667 983.5,66C 979.451,61.3762 975.785,56.5429 972.5,51.5 Z"/></g>
<g><path style="opacity:0.946" fill="#d8b468" d="M 959.5,63.5 C 964.692,66.0132 969.858,68.6798 975,71.5C 975.667,77.5 975.667,83.5 975,89.5C 970.408,92.5473 965.574,95.214 960.5,97.5C 959.501,86.1862 959.168,74.8529 959.5,63.5 Z"/></g>
<g><path style="opacity:0.901" fill="#d7b468" d="M 1024.5,63.5 C 1025.5,63.5 1026.5,63.5 1027.5,63.5C 1027.67,75.1714 1027.5,86.8381 1027,98.5C 1021.5,95.7533 1016.17,92.7533 1011,89.5C 1010.33,83.5 1010.33,77.5 1011,71.5C 1015.81,69.1849 1020.31,66.5183 1024.5,63.5 Z"/></g>
<g><path style="opacity:0.951" fill="#d8b468" d="M 988.5,69.5 C 1000.72,67.4812 1006.55,72.4812 1006,84.5C 1001.53,91.0849 995.365,93.2515 987.5,91C 979.144,86.8662 977.477,80.8662 982.5,73C 984.432,71.5415 986.432,70.3748 988.5,69.5 Z"/></g>
<g><path style="opacity:0.953" fill="#d8b468" d="M 982.5,95.5 C 989.508,95.3337 996.508,95.5004 1003.5,96C 1006.71,100.258 1010.05,104.425 1013.5,108.5C 999.833,109.833 986.167,109.833 972.5,108.5C 976.093,104.287 979.426,99.9536 982.5,95.5 Z"/></g>
<g><path style="opacity:0.976" fill="#d8b468" d="M 985.5,111.5 C 1000.04,109.061 1011.54,113.728 1020,125.5C 1023.49,146.371 1014.49,157.704 993,159.5C 979.549,159.024 970.216,152.69 965,140.5C 963.46,124.878 970.293,115.212 985.5,111.5 Z"/></g>
<g><path style="opacity:0.953" fill="#d8b468" d="M 847.5,121.5 C 851.514,121.334 855.514,121.501 859.5,122C 866.053,124.73 868.22,129.563 866,136.5C 860.56,143.808 853.726,145.308 845.5,141C 838.424,133.699 839.091,127.199 847.5,121.5 Z"/></g>
<g><path style="opacity:0.962" fill="#d8b468" d="M 1126.5,121.5 C 1130.51,121.334 1134.51,121.501 1138.5,122C 1146.08,126.635 1147.41,132.635 1142.5,140C 1134.89,144.922 1127.73,144.422 1121,138.5C 1117.64,130.984 1119.48,125.317 1126.5,121.5 Z"/></g>
<g><path style="opacity:0.947" fill="#d8b468" d="M 886.5,123.5 C 894.852,123.489 899.852,127.489 901.5,135.5C 899.567,142.485 894.9,146.151 887.5,146.5C 876.938,145.138 873.105,139.471 876,129.5C 878.793,126.027 882.293,124.027 886.5,123.5 Z"/></g>
<g><path style="opacity:0.95" fill="#d8b468" d="M 1096.5,123.5 C 1108.09,123.9 1112.59,129.566 1110,140.5C 1101.61,148.654 1093.61,148.321 1086,139.5C 1084.27,130.618 1087.77,125.285 1096.5,123.5 Z"/></g>
<g><path style="opacity:0.954" fill="#d8b468" d="M 820.5,126.5 C 832.056,126.866 836.556,132.533 834,143.5C 832.457,145.378 830.624,146.878 828.5,148C 822.903,149.091 817.57,148.424 812.5,146C 807.134,140.063 807.467,134.396 813.5,129C 815.927,128.098 818.26,127.264 820.5,126.5 Z"/></g>
<g><path style="opacity:0.951" fill="#d8b468" d="M 1161.5,126.5 C 1171.74,125.912 1176.9,130.579 1177,140.5C 1176.31,143.196 1174.81,145.363 1172.5,147C 1167.59,148.492 1162.59,148.826 1157.5,148C 1149.13,142.468 1148.46,136.134 1155.5,129C 1157.61,128.155 1159.61,127.322 1161.5,126.5 Z"/></g>
<g><path style="opacity:0.952" fill="#d8b468" d="M 912.5,134.5 C 916.514,134.334 920.514,134.501 924.5,135C 932.955,140.52 933.622,146.854 926.5,154C 919.43,157.451 912.93,156.618 907,151.5C 903.324,144.028 905.158,138.361 912.5,134.5 Z"/></g>
<g><path style="opacity:0.951" fill="#d8b468" d="M 1061.5,134.5 C 1065.51,134.334 1069.51,134.501 1073.5,135C 1082.78,140.054 1083.78,146.388 1076.5,154C 1068.84,157.601 1062.01,156.435 1056,150.5C 1053.36,143.57 1055.2,138.237 1061.5,134.5 Z"/></g>
<g><path style="opacity:0.95" fill="#d8b468" d="M 947.5,139.5 C 959.057,139.867 963.557,145.534 961,156.5C 952.942,164.468 944.942,164.468 937,156.5C 934.134,146.871 937.634,141.205 947.5,139.5 Z"/></g>
<g><path style="opacity:0.955" fill="#d8b468" d="M 1035.5,139.5 C 1047.09,139.9 1051.59,145.566 1049,156.5C 1040.6,164.694 1032.6,164.36 1025,155.5C 1022.81,146.222 1026.31,140.888 1035.5,139.5 Z"/></g>
<g><path style="opacity:0.957" fill="#d8b468" d="M 785.5,142.5 C 789.182,142.335 792.848,142.501 796.5,143C 806.103,148.75 806.769,155.417 798.5,163C 790.812,166.048 784.312,164.548 779,158.5C 776.464,151.24 778.631,145.907 785.5,142.5 Z"/></g>
<g><path style="opacity:0.949" fill="#d8b468" d="M 1190.5,142.5 C 1196.32,141.588 1201.49,142.922 1206,146.5C 1210.53,157.423 1206.87,163.423 1195,164.5C 1182.82,163.023 1179.32,156.856 1184.5,146C 1186.43,144.541 1188.43,143.375 1190.5,142.5 Z"/></g>
<g><path style="opacity:0.946" fill="#d8b468" d="M 847.5,150.5 C 857.208,150.256 866.874,150.756 876.5,152C 896.13,156.824 915.797,161.491 935.5,166C 948.107,167.858 960.774,169.025 973.5,169.5C 973.5,173.167 973.5,176.833 973.5,180.5C 960.415,180.913 947.415,180.08 934.5,178C 912.123,172.822 889.789,167.489 867.5,162C 843.785,158.682 823.618,165.516 807,182.5C 799.621,192.443 797.288,203.443 800,215.5C 803.715,227.981 808.215,240.147 813.5,252C 809.539,253.598 805.539,255.098 801.5,256.5C 768.3,199.594 783.633,164.261 847.5,150.5 Z"/></g>
<g><path style="opacity:0.947" fill="#d8b468" d="M 1117.5,150.5 C 1141.4,148.389 1163.06,154.222 1182.5,168C 1201.94,184.837 1206.77,205.337 1197,229.5C 1193.74,238.269 1189.91,246.769 1185.5,255C 1181.04,254.854 1176.71,253.854 1172.5,252C 1177.13,240.571 1181.63,229.071 1186,217.5C 1190.17,199.687 1185.01,185.187 1170.5,174C 1155.04,163.553 1138.04,159.553 1119.5,162C 1101.5,166.332 1083.5,170.665 1065.5,175C 1047.9,177.742 1030.23,179.909 1012.5,181.5C 1012.21,177.894 1012.54,174.394 1013.5,171C 1048.76,166.405 1083.43,159.572 1117.5,150.5 Z"/></g>
<g><path style="opacity:0.956" fill="#d8b468" d="M 988.5,161.5 C 996.41,160.064 1002.24,162.731 1006,169.5C 1007.47,174.735 1005.97,178.901 1001.5,182C 996.618,183.555 991.618,183.888 986.5,183C 980.703,180.24 978.537,175.74 980,169.5C 982.098,165.897 984.932,163.23 988.5,161.5 Z"/></g>
<g><path style="opacity:0.95" fill="#d8b468" d="M 766.5,163.5 C 778.897,162.065 784.397,167.399 783,179.5C 778.422,185.055 772.588,186.888 765.5,185C 758.642,182.451 756.142,177.617 758,170.5C 759.851,166.843 762.684,164.51 766.5,163.5 Z"/></g>
<g><path style="opacity:0.948" fill="#d8b468" d="M 1211.5,163.5 C 1217.53,162.676 1222.69,164.342 1227,168.5C 1229.73,181.767 1224.23,187.267 1210.5,185C 1203.66,182.487 1201.16,177.654 1203,170.5C 1204.85,166.843 1207.68,164.51 1211.5,163.5 Z"/></g>
<g><path style="opacity:0.949" fill="#d8b468" d="M 987.5,185.5 C 994.251,184.295 1000.08,185.962 1005,190.5C 1008.11,198.167 1005.95,203.667 998.5,207C 991.755,208.702 985.922,207.202 981,202.5C 977.613,194.62 979.779,188.954 987.5,185.5 Z"/></g>
<g><path style="opacity:0.952" fill="#d8b468" d="M 756.5,190.5 C 763.251,189.295 769.085,190.962 774,195.5C 776.547,207.958 771.381,213.458 758.5,212C 750.123,209.941 747.289,204.774 750,196.5C 751.494,193.686 753.66,191.686 756.5,190.5 Z"/></g>
<g><path style="opacity:0.948" fill="#d8b468" d="M 1218.5,190.5 C 1222.18,190.335 1225.85,190.501 1229.5,191C 1238.74,196.087 1239.74,202.42 1232.5,210C 1224.75,214.037 1217.92,212.87 1212,206.5C 1209.46,199.24 1211.63,193.907 1218.5,190.5 Z"/></g>
<g><path style="opacity:0.951" fill="#d8b468" d="M 990.5,208.5 C 1004.02,208.817 1008.52,215.15 1004,227.5C 997.009,232.588 989.842,232.755 982.5,228C 977.027,218.117 979.693,211.617 990.5,208.5 Z"/></g>
<g><path style="opacity:0.989" fill="#d8b468" d="M 1360.5,209.5 C 1361.25,208.427 1362.25,208.26 1363.5,209C 1373.94,214.635 1384.44,220.135 1395,225.5C 1405.98,219.841 1416.98,214.174 1428,208.5C 1427.1,220.764 1425.26,232.931 1422.5,245C 1431.12,254.625 1440.12,263.958 1449.5,273C 1436.87,275.186 1424.2,277.186 1411.5,279C 1433.7,298.873 1456.2,318.373 1479,337.5C 1490.6,324.109 1504.77,320.609 1521.5,327C 1522.58,327.956 1523.75,328.789 1525,329.5C 1540.91,315.101 1558.41,312.934 1577.5,323C 1584.42,326.751 1589.42,332.251 1592.5,339.5C 1619.79,344.724 1630.63,361.058 1625,388.5C 1623.46,394.755 1620.96,400.588 1617.5,406C 1637.99,433.643 1637.32,460.643 1615.5,487C 1616.72,492.45 1617.88,497.95 1619,503.5C 1622.54,507.574 1627.04,509.741 1632.5,510C 1647.16,509.715 1661.83,509.715 1676.5,510C 1696.88,514.375 1710.38,526.542 1717,546.5C 1723.21,565.482 1719.04,581.649 1704.5,595C 1699.73,597.898 1694.73,599.898 1689.5,601C 1691.91,598.965 1691.25,597.965 1687.5,598C 1697.5,588.864 1696.83,580.864 1685.5,574C 1679.97,573.178 1675.47,575.011 1672,579.5C 1666.67,588.167 1661.33,596.833 1656,605.5C 1647.42,615.255 1636.59,620.422 1623.5,621C 1643.41,626.227 1663.08,632.227 1682.5,639C 1696.97,644.989 1709.3,653.823 1719.5,665.5C 1771.95,646.594 1814.11,659.928 1846,705.5C 1857.16,726.197 1859.5,747.864 1853,770.5C 1845.63,790.04 1832.13,803.373 1812.5,810.5C 1807.17,821.158 1801.34,831.491 1795,841.5C 1787.58,868.152 1797.08,885.652 1823.5,894C 1835.6,896.363 1843.1,891.53 1846,879.5C 1846.89,869.388 1847.89,859.388 1849,849.5C 1856.22,862.426 1860.38,876.26 1861.5,891C 1858.41,921.758 1841.41,939.091 1810.5,943C 1793.24,945.187 1777.9,940.854 1764.5,930C 1761.61,926.778 1759.11,923.278 1757,919.5C 1756.08,931.891 1756.42,944.224 1758,956.5C 1759,958.5 1760,960.5 1761,962.5C 1766.5,967.333 1772,972.167 1777.5,977C 1771.55,977.027 1765.72,976.193 1760,974.5C 1759.5,976.81 1759.34,979.143 1759.5,981.5C 1749.39,981.86 1741.55,977.86 1736,969.5C 1730.7,978.158 1729.2,987.492 1731.5,997.5C 1733.52,996.826 1735.18,995.659 1736.5,994C 1737.64,993.251 1738.64,993.417 1739.5,994.5C 1741.66,1001.46 1743.66,1008.46 1745.5,1015.5C 1778.84,1014.43 1806.67,1026.09 1829,1050.5C 1829.49,1051.79 1829.66,1053.13 1829.5,1054.5C 1828.13,1054.66 1826.79,1054.49 1825.5,1054C 1797.66,1037.17 1767.66,1031.5 1735.5,1037C 1710.41,1041.36 1686.08,1048.36 1662.5,1058C 1642.17,1066.33 1621.83,1074.67 1601.5,1083C 1593.46,1116.37 1572.79,1137.04 1539.5,1145C 1512.74,1149.25 1488.41,1143.58 1466.5,1128C 1451.88,1113.27 1448.38,1096.11 1456,1076.5C 1464.98,1058.18 1479.31,1051.18 1499,1055.5C 1496.42,1060.66 1493.75,1065.99 1491,1071.5C 1483.9,1089.24 1485.23,1106.24 1495,1122.5C 1507.18,1135.59 1522.02,1139.76 1539.5,1135C 1568.58,1123.68 1581.41,1102.51 1578,1071.5C 1568.51,1037.02 1545.85,1019.35 1510,1018.5C 1488.05,1019.82 1467.55,1025.98 1448.5,1037C 1375.25,1080.51 1300.25,1121.18 1223.5,1159C 1175.93,1181.75 1126.6,1199.75 1075.5,1213C 1050.17,1219.38 1024.5,1221.88 998.5,1220.5C 998.5,1219.17 998.5,1217.83 998.5,1216.5C 1020.36,1215.09 1041.69,1210.93 1062.5,1204C 1109.02,1187.91 1154.02,1168.24 1197.5,1145C 1273.31,1103.6 1347.65,1059.94 1420.5,1014C 1438.38,1002.9 1457.38,994.229 1477.5,988C 1495.21,983.241 1513.04,982.408 1531,985.5C 1538.42,974.325 1546.09,963.325 1554,952.5C 1569,939.5 1584,926.5 1599,913.5C 1604.84,907.316 1609.51,900.316 1613,892.5C 1614.05,885.314 1613.39,878.314 1611,871.5C 1602.24,855.64 1592.24,840.64 1581,826.5C 1571.4,808.942 1566.9,790.109 1567.5,770C 1567.45,758.131 1568.78,746.465 1571.5,735C 1536.33,733.494 1506.83,719.994 1483,694.5C 1456.9,703.317 1430.4,710.817 1403.5,717C 1398.39,718.723 1393.39,720.723 1388.5,723C 1386.68,724.8 1385.52,726.966 1385,729.5C 1384.44,746.697 1386.11,763.697 1390,780.5C 1391.09,778.651 1392.43,776.984 1394,775.5C 1393.86,782.036 1394.03,788.536 1394.5,795C 1397.19,798.209 1399.86,798.209 1402.5,795C 1410.64,794.87 1418.31,793.037 1425.5,789.5C 1431.03,794.255 1432.86,800.255 1431,807.5C 1429.82,818.54 1424.98,827.54 1416.5,834.5C 1414.31,832.476 1411.98,830.643 1409.5,829C 1402.91,827.297 1396.25,825.964 1389.5,825C 1380.17,821.665 1374.33,815.165 1372,805.5C 1372.85,793.578 1370.85,782.244 1366,771.5C 1327.64,924.784 1240.48,1040.95 1104.5,1120C 1069.23,1139.22 1032.39,1154.72 994,1166.5C 852.343,1122.82 745.343,1036.48 673,907.5C 655.679,875.199 641.679,841.533 631,806.5C 628.854,814.66 624.021,820.493 616.5,824C 609.914,825.703 603.247,827.036 596.5,828C 592.695,829.313 589.529,831.479 587,834.5C 580.464,829.788 576.131,823.455 574,815.5C 570.508,807.28 570.841,799.28 575,791.5C 575.689,790.643 576.522,789.977 577.5,789.5C 585.02,793.204 593.02,794.871 601.5,794.5C 601.5,795.5 601.5,796.5 601.5,797.5C 604.272,797.78 606.772,797.113 609,795.5C 609.305,788.817 609.305,782.15 609,775.5C 610.713,776.878 612.047,778.545 613,780.5C 614.716,771.54 616.216,762.54 617.5,753.5C 615.786,743.335 614.119,733.169 612.5,723C 610.55,721.116 608.216,719.782 605.5,719C 578.062,711.641 550.728,703.974 523.5,696C 522.069,695.535 520.903,694.701 520,693.5C 507.137,708.195 491.637,719.362 473.5,727C 460.31,731.957 446.643,734.457 432.5,734.5C 436.996,758.628 436.496,782.628 431,806.5C 428.746,814.34 425.413,821.673 421,828.5C 410.494,841.344 401.161,855.011 393,869.5C 389.912,876.554 388.912,883.887 390,891.5C 395.829,904.341 404.329,915.174 415.5,924C 428.217,933.044 440.051,943.211 451,954.5C 457.871,963.74 464.371,973.24 470.5,983C 500.895,983.016 529.228,990.682 555.5,1006C 615.835,1042.84 676.502,1079.17 737.5,1115C 789.137,1145.32 842.804,1171.65 898.5,1194C 920.917,1202.69 943.917,1209.35 967.5,1214C 975.109,1215.41 982.776,1216.24 990.5,1216.5C 990.5,1217.83 990.5,1219.17 990.5,1220.5C 964.832,1221.79 939.499,1219.29 914.5,1213C 858.075,1198.19 803.742,1177.86 751.5,1152C 678.565,1115.54 607.231,1076.54 537.5,1035C 512.115,1020.16 485.115,1015.82 456.5,1022C 428.281,1032.24 412.947,1052.4 410.5,1082.5C 413.44,1115.11 431.107,1133.11 463.5,1136.5C 481.116,1136.71 493.282,1128.71 500,1112.5C 504.237,1099.88 504.237,1087.21 500,1074.5C 497.181,1067.87 494.181,1061.54 491,1055.5C 512.215,1051.11 526.881,1059.11 535,1079.5C 542.143,1105.71 533.643,1124.87 509.5,1137C 481.273,1149.94 453.273,1149.6 425.5,1136C 404.917,1122.85 392.584,1104.18 388.5,1080C 356.366,1066.29 323.7,1053.95 290.5,1043C 270.223,1037.15 249.557,1034.48 228.5,1035C 218.969,1035.59 209.636,1037.26 200.5,1040C 188.757,1044.04 177.423,1048.88 166.5,1054.5C 166.372,1052.35 166.872,1050.35 168,1048.5C 192.068,1023.09 221.568,1012.42 256.5,1016.5C 257.167,1015.83 257.833,1015.17 258.5,1014.5C 260.013,1007.45 261.679,1000.45 263.5,993.5C 266.351,994.323 269.018,995.656 271.5,997.5C 272.086,997.291 272.586,996.957 273,996.5C 273.498,988.653 272.498,980.987 270,973.5C 269.385,971.884 268.385,970.551 267,969.5C 261.447,977.86 253.614,981.86 243.5,981.5C 243.663,979.143 243.497,976.81 243,974.5C 237.568,976.349 232.068,977.016 226.5,976.5C 231.72,971.96 236.887,967.293 242,962.5C 243,960.833 244,959.167 245,957.5C 247.488,944.879 247.821,932.212 246,919.5C 237.945,933.459 225.779,941.293 209.5,943C 185.97,945.64 166.47,938.14 151,920.5C 142.982,908.299 140.315,894.966 143,880.5C 145.357,869.592 149.191,859.259 154.5,849.5C 155.331,857.145 155.831,864.812 156,872.5C 157.023,890.544 166.19,897.377 183.5,893C 205.738,884.693 214.572,868.86 210,845.5C 203.398,833.961 197.065,822.295 191,810.5C 161.963,798.961 147.13,777.461 146.5,746C 147.709,717.581 159.709,694.914 182.5,678C 213.693,654.878 247.36,650.711 283.5,665.5C 299.073,648.706 318.073,637.539 340.5,632C 353.833,628.333 367.167,624.667 380.5,621C 367.627,620.645 356.794,615.812 348,606.5C 342.667,597.833 337.333,589.167 332,580.5C 324.533,571.243 317.199,571.243 310,580.5C 308.453,587.275 310.286,593.108 315.5,598C 314.5,598.333 313.5,598.667 312.5,599C 313.711,599.893 313.711,600.726 312.5,601.5C 287.436,591.704 278.603,573.704 286,547.5C 292.286,526.543 306.119,514.043 327.5,510C 342.173,509.754 356.839,509.754 371.5,510C 377.567,509.555 382.067,506.722 385,501.5C 385.672,496.965 386.506,492.465 387.5,488C 366.831,461.255 366.165,433.921 385.5,406C 374.995,389.186 374.161,372.02 383,354.5C 389.917,345.623 399.083,340.789 410.5,340C 414.853,330.141 422.186,323.474 432.5,320C 449.688,313.704 464.855,316.871 478,329.5C 491.79,321.326 505.29,321.826 518.5,331C 520.709,332.873 522.542,335.04 524,337.5C 542.833,321.333 561.667,305.167 580.5,289C 570.427,288.247 560.427,287.08 550.5,285.5C 558.52,276.648 566.353,267.648 574,258.5C 572.202,245.804 569.369,233.304 565.5,221C 566.5,220.333 567.5,220.333 568.5,221C 579.056,225.779 589.723,230.279 600.5,234.5C 611.546,228.225 622.379,221.558 633,214.5C 632.393,227.505 631.727,240.505 631,253.5C 640.964,260.966 650.464,268.966 659.5,277.5C 647.583,280.646 635.583,283.479 623.5,286C 618.143,297.733 612.976,309.567 608,321.5C 601.667,311.5 595.333,301.5 589,291.5C 570.167,314.333 551.333,337.167 532.5,360C 546.858,363.205 561.191,366.538 575.5,370C 586.642,372.322 596.475,377.155 605,384.5C 609.826,391.457 610.493,398.79 607,406.5C 603.489,408.676 599.656,410.176 595.5,411C 597.351,412.684 599.018,414.517 600.5,416.5C 598.573,420.388 596.573,424.221 594.5,428C 591.671,429.509 588.838,429.675 586,428.5C 583.931,429.264 581.764,429.764 579.5,430C 563.799,430.117 548.132,430.784 532.5,432C 526.074,437.144 518.741,440.144 510.5,441C 506.734,446.584 505.568,452.751 507,459.5C 511.666,471.157 518.332,481.491 527,490.5C 547.575,508.245 561.408,530.245 568.5,556.5C 573.424,558.767 578.091,561.433 582.5,564.5C 590.181,559.658 598.181,555.325 606.5,551.5C 607.5,528.176 607.833,504.843 607.5,481.5C 641.803,485.93 668.303,473.93 687,445.5C 694.904,429.053 697.737,411.72 695.5,393.5C 745.501,393.667 795.501,393.5 845.5,393C 944.469,364.422 1043.47,364.422 1142.5,393C 1192.17,393.5 1241.83,393.667 1291.5,393.5C 1287.56,423.895 1297.23,448.729 1320.5,468C 1338.4,479.767 1358.07,484.267 1379.5,481.5C 1379.33,502.169 1379.5,522.836 1380,543.5C 1393.86,549.847 1407.36,556.847 1420.5,564.5C 1425.78,561.613 1430.95,558.613 1436,555.5C 1439.76,537.304 1447.76,521.304 1460,507.5C 1470.41,497.093 1480.08,486.093 1489,474.5C 1493.64,468.056 1496.47,460.889 1497.5,453C 1497.19,448.407 1495.52,444.407 1492.5,441C 1484.26,440.112 1476.93,437.112 1470.5,432C 1450.72,430.903 1431.05,429.903 1411.5,429C 1410,428.417 1408.67,427.584 1407.5,426.5C 1406.36,422.893 1404.7,419.56 1402.5,416.5C 1404.02,414.142 1406.02,412.309 1408.5,411C 1404.01,410.337 1399.84,408.837 1396,406.5C 1391.76,395.017 1394.59,385.851 1404.5,379C 1410.85,375.55 1417.51,372.884 1424.5,371C 1439.81,367.205 1455.14,363.538 1470.5,360C 1450.36,334.89 1429.86,310.057 1409,285.5C 1404.17,294.5 1399.33,303.5 1394.5,312.5C 1388.43,301.536 1382.77,290.369 1377.5,279C 1364.7,276.937 1352.03,274.603 1339.5,272C 1348.64,263.864 1357.47,255.364 1366,246.5C 1365.23,233.913 1363.4,221.58 1360.5,209.5 Z M 730.5,429.5 C 906.167,429.5 1081.83,429.5 1257.5,429.5C 1267.31,476.81 1295.81,505.81 1343,516.5C 1343.67,569.167 1343.67,621.833 1343,674.5C 1334.13,808.373 1281.97,921.873 1186.5,1015C 1130.73,1066.49 1066.56,1104.33 994,1128.5C 844.935,1077.77 739.935,979.77 679,834.5C 659.779,785.613 648.445,734.946 645,682.5C 644.333,627.167 644.333,571.833 645,516.5C 691.494,505.173 719.994,476.173 730.5,429.5 Z M 795.5,508.5 C 927.833,508.5 1060.17,508.5 1192.5,508.5C 1197.97,544.804 1218.3,568.304 1253.5,579C 1257.11,579.936 1260.78,580.436 1264.5,580.5C 1264.67,610.835 1264.5,641.168 1264,671.5C 1255.33,794.001 1204.83,895.168 1112.5,975C 1076.64,1004.28 1036.98,1027.44 993.5,1044.5C 864.906,991.407 780.073,898.407 739,765.5C 731.084,737.002 726.084,708.002 724,678.5C 723.5,645.835 723.333,613.168 723.5,580.5C 764.461,573.539 788.461,549.539 795.5,508.5 Z M 1379.5,596.5 C 1389.16,605.66 1399.83,613.494 1411.5,620C 1409.87,629.911 1410.37,639.744 1413,649.5C 1415.78,655.943 1420.28,660.777 1426.5,664C 1413.76,672.397 1400.76,680.397 1387.5,688C 1384.89,691.4 1381.72,694.233 1378,696.5C 1379.35,663.239 1379.85,629.906 1379.5,596.5 Z M 606.5,610.5 C 607.582,634.668 608.082,659.001 608,683.5C 597.701,677.365 587.534,671.031 577.5,664.5C 588.404,656.356 593.737,645.356 593.5,631.5C 592.631,627.456 592.631,623.456 593.5,619.5C 598.074,616.724 602.407,613.724 606.5,610.5 Z M 1732.5,835.5 C 1732.17,835.5 1731.83,835.5 1731.5,835.5C 1725.08,829.581 1719.58,822.914 1715,815.5C 1713.72,805.203 1714.39,794.869 1717,784.5C 1723.13,764.295 1728.8,743.961 1734,723.5C 1742.55,744.293 1744.21,765.626 1739,787.5C 1735.72,797.678 1733.05,808.011 1731,818.5C 1730.31,824.28 1730.81,829.946 1732.5,835.5 Z M 270.5,836.5 C 272.372,829.96 272.872,823.294 272,816.5C 268.353,803.246 265.02,789.913 262,776.5C 259.762,758.504 262.095,741.171 269,724.5C 273.853,742.902 279.187,761.236 285,779.5C 287.274,788.202 288.774,797.035 289.5,806C 289.303,809.987 288.469,813.821 287,817.5C 282.008,824.322 276.508,830.655 270.5,836.5 Z M 354.5,822.5 C 358.926,826.018 361.259,830.685 361.5,836.5C 360.802,840.958 359.635,845.291 358,849.5C 354.451,855.93 351.451,862.596 349,869.5C 345.874,877.44 347.374,884.273 353.5,890C 360.912,894.741 367.745,900.241 374,906.5C 385.695,921.388 396.529,936.888 406.5,953C 404.011,959.272 402.345,965.772 401.5,972.5C 402.391,973.59 403.391,973.59 404.5,972.5C 405.641,974.421 405.808,976.421 405,978.5C 402.825,981.376 400.325,983.876 397.5,986C 402.618,988.87 407.951,989.203 413.5,987C 418.894,984.114 423.894,980.614 428.5,976.5C 431.846,979.472 432.012,982.472 429,985.5C 427.221,984.521 425.555,984.854 424,986.5C 423.623,990.019 423.123,993.519 422.5,997C 422.585,998.107 422.919,999.107 423.5,1000C 400.126,1017.92 388.293,1041.75 388,1071.5C 360.699,1051.43 330.865,1035.93 298.5,1025C 301.89,1024.75 305.223,1024.25 308.5,1023.5C 310.899,1015.58 311.066,1007.58 309,999.5C 307.464,992.227 305.131,985.227 302,978.5C 293.562,963.061 285.562,947.394 278,931.5C 272.649,913.693 271.649,895.693 275,877.5C 298.086,866.717 319.586,853.55 339.5,838C 344.703,832.965 349.703,827.798 354.5,822.5 Z M 1647.5,822.5 C 1670.38,845.285 1696.71,863.118 1726.5,876C 1728.44,878.47 1729.6,881.304 1730,884.5C 1731.77,905.093 1728.44,924.759 1720,943.5C 1711.89,957.396 1704.55,971.729 1698,986.5C 1693.97,998.498 1692.47,1010.83 1693.5,1023.5C 1695.31,1023.49 1696.98,1023.99 1698.5,1025C 1663.75,1036.87 1631.75,1053.71 1602.5,1075.5C 1602.81,1050.07 1594.48,1028.07 1577.5,1009.5C 1578.64,1007.39 1579.64,1005.23 1580.5,1003C 1580.48,998.658 1580.31,994.158 1580,989.5C 1579.32,985.841 1577.32,984.508 1574,985.5C 1571.31,982.594 1571.47,979.594 1574.5,976.5C 1577.94,978.435 1580.94,980.935 1583.5,984C 1590.46,988.621 1597.79,989.454 1605.5,986.5C 1602.45,983.455 1599.79,980.122 1597.5,976.5C 1597.88,974.979 1598.05,973.313 1598,971.5C 1599.47,973.872 1600.64,973.872 1601.5,971.5C 1600.31,964.765 1599.14,958.098 1598,951.5C 1607.77,934.958 1618.77,919.291 1631,904.5C 1637.69,898.976 1644.52,893.642 1651.5,888.5C 1652.86,886.972 1654.03,885.305 1655,883.5C 1655.75,878.428 1655.42,873.428 1654,868.5C 1648.99,858.153 1644.83,847.486 1641.5,836.5C 1642.42,831.328 1644.42,826.661 1647.5,822.5 Z"/></g>
<g><path style="opacity:0.956" fill="#d8b468" d="M 762.5,217.5 C 769.51,216.919 774.676,219.586 778,225.5C 779.463,231.74 777.297,236.24 771.5,239C 765.903,240.091 760.57,239.424 755.5,237C 749.746,227.433 752.08,220.933 762.5,217.5 Z"/></g>
<g><path style="opacity:0.945" fill="#d8b468" d="M 1218.5,217.5 C 1231.45,217.58 1235.95,223.58 1232,235.5C 1226.03,239.803 1219.53,240.636 1212.5,238C 1204.49,228.285 1206.49,221.451 1218.5,217.5 Z"/></g>
<g><path style="opacity:0.955" fill="#d8b468" d="M 967.5,235.5 C 984.328,234.338 1001.33,234.172 1018.5,235C 1013.79,241.589 1008.96,248.089 1004,254.5C 1002.56,255.718 1000.9,256.385 999,256.5C 993.865,256.874 988.699,256.374 983.5,255C 978.302,248.311 972.969,241.811 967.5,235.5 Z"/></g>
<g><path style="opacity:0.981" fill="#d8b468" d="M 1094.5,234.5 C 1109.26,252.36 1109.09,270.027 1094,287.5C 1092.29,291.079 1090.46,294.579 1088.5,298C 1090.58,300.134 1092.41,299.968 1094,297.5C 1097.37,290.139 1101.54,283.306 1106.5,277C 1115.33,272.502 1122.5,274.336 1128,282.5C 1130.1,291.392 1127.27,298.058 1119.5,302.5C 1116.73,299.804 1114.06,296.971 1111.5,294C 1106.47,293.677 1102.13,295.343 1098.5,299C 1100.68,301.35 1103.02,303.517 1105.5,305.5C 1102.71,306.879 1100.37,308.712 1098.5,311C 1099.8,313.776 1100.97,316.61 1102,319.5C 1105.09,317.706 1108.25,316.039 1111.5,314.5C 1111.4,318.8 1111.4,323.134 1111.5,327.5C 1120.38,331.643 1129.05,331.143 1137.5,326C 1145.84,321.501 1153.84,316.501 1161.5,311C 1165.68,311.238 1169.68,312.405 1173.5,314.5C 1174.63,316.074 1174.8,317.741 1174,319.5C 1167.85,342.106 1162.02,364.773 1156.5,387.5C 1048.33,352.869 940.16,352.869 832,387.5C 830.118,386.907 829.118,385.573 829,383.5C 822.686,360.912 817.02,338.245 812,315.5C 815.194,313.57 818.527,311.903 822,310.5C 830.902,316.371 840.068,321.871 849.5,327C 858.512,330.332 867.512,330.332 876.5,327C 875.058,322.959 874.058,318.792 873.5,314.5C 877.581,315.4 881.081,317.4 884,320.5C 885.691,317.099 887.191,313.599 888.5,310C 885.497,308.834 882.83,307.167 880.5,305C 882.731,303.39 884.731,301.557 886.5,299.5C 883.74,293.591 879.406,292.091 873.5,295C 871.874,297.628 869.874,299.961 867.5,302C 863.626,301.452 860.793,299.285 859,295.5C 854.976,280.865 860.476,274.032 875.5,275C 877.333,276.167 879.167,277.333 881,278.5C 884.879,285.762 889.379,292.595 894.5,299C 895.635,299.749 896.635,299.583 897.5,298.5C 894.254,290.331 889.754,282.998 884,276.5C 880.737,269.501 879.737,262.168 881,254.5C 883.174,247.988 886.007,241.822 889.5,236C 898.517,238.349 904.35,244.183 907,253.5C 907.667,258.833 907.667,264.167 907,269.5C 904.894,278.741 903.394,288.074 902.5,297.5C 904.124,297.64 905.29,296.973 906,295.5C 907.333,288.843 908.666,282.176 910,275.5C 913.239,266.131 919.739,262.297 929.5,264C 937.028,267.889 940.195,274.056 939,282.5C 936.988,285.846 934.321,288.512 931,290.5C 928.937,288.185 926.77,286.019 924.5,284C 916.282,282.885 912.782,286.385 914,294.5C 916.25,295.708 918.417,297.041 920.5,298.5C 918.833,300.5 917.167,302.5 915.5,304.5C 917.791,306.288 919.957,308.288 922,310.5C 924.371,307.794 927.037,305.461 930,303.5C 931.32,307.114 932.487,310.78 933.5,314.5C 944.787,318.046 955.454,316.546 965.5,310C 973.206,303.961 979.873,296.961 985.5,289C 989.937,286.101 994.603,285.768 999.5,288C 1004.83,294 1010.17,300 1015.5,306C 1026.28,315.356 1038.61,318.356 1052.5,315C 1053.58,311.595 1054.42,308.095 1055,304.5C 1055.41,304.043 1055.91,303.709 1056.5,303.5C 1059.15,305.65 1061.65,307.983 1064,310.5C 1066.64,309.024 1068.81,307.024 1070.5,304.5C 1068.83,302.5 1067.17,300.5 1065.5,298.5C 1067.58,297.041 1069.75,295.708 1072,294.5C 1073.22,286.385 1069.72,282.885 1061.5,284C 1059.16,285.84 1057.16,288.007 1055.5,290.5C 1046.79,285.53 1044.62,278.53 1049,269.5C 1058.06,260.923 1066.39,261.59 1074,271.5C 1077.7,279.384 1079.7,287.718 1080,296.5C 1081.01,297.337 1082.18,297.67 1083.5,297.5C 1082.36,284.335 1080.53,271.335 1078,258.5C 1080.29,248.248 1085.79,240.248 1094.5,234.5 Z"/></g>
<g><path style="opacity:0.955" fill="#d8b468" d="M 771.5,242.5 C 777.279,241.708 782.446,243.041 787,246.5C 791.635,254.436 789.802,260.27 781.5,264C 771.322,266.632 764.988,262.965 762.5,253C 763.944,248.063 766.944,244.563 771.5,242.5 Z"/></g>
<g><path style="opacity:0.952" fill="#d8b468" d="M 1205.5,242.5 C 1216.21,240.746 1222.04,245.079 1223,255.5C 1219.76,263.266 1213.92,266.099 1205.5,264C 1197.84,261.372 1195.34,256.206 1198,248.5C 1199.71,245.41 1202.21,243.41 1205.5,242.5 Z"/></g>
<g><path style="opacity:0.957" fill="#d8b468" d="M 950.5,250.5 C 958.381,253.774 966.048,257.607 973.5,262C 974.811,268.777 974.811,275.61 973.5,282.5C 965.762,286.118 958.262,290.118 951,294.5C 950.5,279.837 950.333,265.17 950.5,250.5 Z"/></g>
<g><path style="opacity:0.929" fill="#d7b468" d="M 1035.5,249.5 C 1036.83,264.339 1036.83,279.339 1035.5,294.5C 1027.59,290.294 1019.75,285.96 1012,281.5C 1011.19,274.918 1011.36,268.418 1012.5,262C 1020.23,257.805 1027.9,253.638 1035.5,249.5 Z"/></g>
<g><path style="opacity:0.956" fill="#d8b468" d="M 824.5,253.5 C 825.552,253.351 826.552,253.517 827.5,254C 823.038,263.091 818.705,272.257 814.5,281.5C 808.66,283.653 803.826,282.32 800,277.5C 798.361,272.888 796.194,268.554 793.5,264.5C 803.857,260.605 814.191,256.938 824.5,253.5 Z"/></g>
<g><path style="opacity:0.952" fill="#d8b468" d="M 1159.5,253.5 C 1170.57,256.691 1181.57,260.191 1192.5,264C 1190.19,270.293 1186.86,275.959 1182.5,281C 1179.06,282.835 1175.56,283.335 1172,282.5C 1167.26,273.034 1163.1,263.367 1159.5,253.5 Z"/></g>
<g><path style="opacity:0.95" fill="#d8b468" d="M 988.5,260.5 C 994.883,259.476 1000.38,261.143 1005,265.5C 1009.01,276.807 1005.01,282.807 993,283.5C 982.488,283.129 978.154,277.795 980,267.5C 981.851,263.843 984.684,261.51 988.5,260.5 Z"/></g>
<g><path style="opacity:0.96" fill="#d8b468" d="M 840.5,271.5 C 841.966,272.347 842.8,273.68 843,275.5C 846.422,287.356 849.922,299.189 853.5,311C 853.167,311.5 852.833,312 852.5,312.5C 844.082,309.642 835.915,306.309 828,302.5C 826.345,297.227 825.345,291.893 825,286.5C 830.67,281.996 835.837,276.996 840.5,271.5 Z"/></g>
<g><path style="opacity:0.946" fill="#d8b468" d="M 1144.5,271.5 C 1149.87,276.609 1155.37,281.609 1161,286.5C 1160.66,291.893 1159.66,297.227 1158,302.5C 1150.09,306.309 1141.92,309.642 1133.5,312.5C 1136.34,298.825 1140.01,285.158 1144.5,271.5 Z"/></g>
<g><path style="opacity:0.962" fill="#d8b468" d="M 802.5,287.5 C 809.251,286.295 815.085,287.962 820,292.5C 823.254,303.439 819.087,309.439 807.5,310.5C 797.08,309.924 792.913,304.591 795,294.5C 796.767,291.228 799.267,288.895 802.5,287.5 Z"/></g>
<g><path style="opacity:0.956" fill="#d8b468" d="M 1172.5,287.5 C 1182.71,285.205 1189.38,288.872 1192.5,298.5C 1191.13,306.205 1186.46,310.205 1178.5,310.5C 1168.3,309.808 1163.8,304.474 1165,294.5C 1166.74,291.254 1169.24,288.921 1172.5,287.5 Z"/></g>
<g><path style="opacity:0.97" fill="#d8b468" d="M 776.5,490.5 C 921.167,490.5 1065.83,490.5 1210.5,490.5C 1209.55,528.813 1227.55,552.646 1264.5,562C 1270.82,562.5 1277.16,562.666 1283.5,562.5C 1283.84,602.513 1283.34,642.513 1282,682.5C 1269.01,818.702 1208.18,927.535 1099.5,1009C 1066.74,1031.8 1031.57,1050.3 994,1064.5C 879.646,1021.15 796.312,944.148 744,833.5C 720.792,782.332 707.792,728.665 705,672.5C 704.5,635.835 704.333,599.168 704.5,562.5C 742.325,564.15 766.159,546.816 776,510.5C 776.5,503.842 776.666,497.175 776.5,490.5 Z M 795.5,508.5 C 788.461,549.539 764.461,573.539 723.5,580.5C 723.333,613.168 723.5,645.835 724,678.5C 726.084,708.002 731.084,737.002 739,765.5C 780.073,898.407 864.906,991.407 993.5,1044.5C 1036.98,1027.44 1076.64,1004.28 1112.5,975C 1204.83,895.168 1255.33,794.001 1264,671.5C 1264.5,641.168 1264.67,610.835 1264.5,580.5C 1260.78,580.436 1257.11,579.936 1253.5,579C 1218.3,568.304 1197.97,544.804 1192.5,508.5C 1060.17,508.5 927.833,508.5 795.5,508.5 Z"/></g>
<g><path style="opacity:0.977" fill="#d8b468" d="M 1172.5,613.5 C 1171.11,611.292 1169.11,609.792 1166.5,609C 1158.28,606.755 1150.28,607.421 1142.5,611C 1137.83,613.667 1133.17,616.333 1128.5,619C 1119.2,626.629 1110.2,634.629 1101.5,643C 1080.65,663.013 1059.99,683.179 1039.5,703.5C 1063.66,745.831 1088.83,787.498 1115,828.5C 1127.69,842.431 1142.52,845.264 1159.5,837C 1170.14,827.131 1176.64,814.964 1179,800.5C 1183.19,799.442 1187.36,799.775 1191.5,801.5C 1180.31,851.216 1149.64,872.049 1099.5,864C 1086.73,860.194 1076.23,853.028 1068,842.5C 1045.83,807.501 1024.16,772.167 1003,736.5C 996.508,760.978 987.841,784.644 977,807.5C 950.688,857.515 909.021,883.182 852,884.5C 828.236,885.048 809.236,876.048 795,857.5C 782.518,829.24 787.685,804.74 810.5,784C 829.69,770.067 850.023,768.067 871.5,778C 889.117,791.639 892.95,808.472 883,828.5C 873.982,840.95 862.149,844.784 847.5,840C 837.146,834.167 833.312,825.334 836,813.5C 842.849,797.493 854.682,791.826 871.5,796.5C 868.577,790.761 863.91,786.927 857.5,785C 831.168,780.68 813.002,790.846 803,815.5C 796.227,846.402 808.393,864.902 839.5,871C 860.791,873.013 879.458,867.013 895.5,853C 910.561,839.383 922.061,823.216 930,804.5C 935.261,791.717 939.928,778.717 944,765.5C 956.132,716.974 967.632,668.308 978.5,619.5C 962.843,620.8 947.176,621.633 931.5,622C 933.046,617.981 934.046,613.815 934.5,609.5C 979.495,605.944 1024.49,603.278 1069.5,601.5C 1068.37,605.135 1067.37,608.802 1066.5,612.5C 1054.95,614.438 1043.28,615.605 1031.5,616C 1030.57,616.388 1029.91,617.055 1029.5,618C 1021.93,649.504 1014.77,681.004 1008,712.5C 1042.5,680 1077,647.5 1111.5,615C 1122.41,604.376 1135.41,597.709 1150.5,595C 1171.08,591.861 1184.58,600.028 1191,619.5C 1193.08,644.748 1181.58,656.914 1156.5,656C 1145.01,650.846 1140.51,642.013 1143,629.5C 1145.57,621.261 1151.07,616.095 1159.5,614C 1163.82,613.501 1168.15,613.334 1172.5,613.5 Z"/></g>
<g><path style="opacity:0.063" fill="#deaf6f" d="M 1731.5,835.5 C 1731.83,835.5 1732.17,835.5 1732.5,835.5C 1733.5,838.105 1733.17,838.105 1731.5,835.5 Z"/></g>
<g><path style="opacity:0.975" fill="#d8b468" d="M 117.5,1085.5 C 130.875,1085.14 144.208,1085.64 157.5,1087C 193.032,1093.84 227.365,1104.51 260.5,1119C 297.147,1136.16 334.147,1152.49 371.5,1168C 393.829,1176.78 416.829,1183.11 440.5,1187C 487.563,1193.96 525.896,1178.96 555.5,1142C 556.332,1141.31 556.998,1141.48 557.5,1142.5C 534.949,1191.3 496.616,1215.63 442.5,1215.5C 414.823,1215.06 387.823,1210.56 361.5,1202C 305.133,1182.88 251.133,1158.55 199.5,1129C 184.195,1120.85 168.528,1113.51 152.5,1107C 133.683,1099.18 114.35,1097.51 94.5,1102C 74.6003,1109.57 63.267,1123.9 60.5,1145C 63.0808,1166.58 75.0808,1179.58 96.5,1184C 119.554,1186.05 138.054,1177.89 152,1159.5C 159.773,1168.75 161.44,1179.09 157,1190.5C 152.057,1202.44 143.224,1209.61 130.5,1212C 95.5357,1217.11 71.7024,1203.27 59,1170.5C 49.9349,1131.8 63.7683,1104.96 100.5,1090C 106.253,1088.31 111.919,1086.81 117.5,1085.5 Z"/></g>
<g><path style="opacity:0.975" fill="#d8b468" d="M 1839.5,1085.5 C 1865.73,1081.91 1889.73,1087.41 1911.5,1102C 1933.35,1122.57 1939.18,1147.07 1929,1175.5C 1914.79,1205.19 1891.29,1217.36 1858.5,1212C 1835.2,1204.57 1826.7,1189.07 1833,1165.5C 1834.31,1163.36 1835.81,1161.36 1837.5,1159.5C 1857.59,1184.81 1882.25,1190.64 1911.5,1177C 1932.37,1159.25 1934.54,1139.42 1918,1117.5C 1909.54,1107.35 1898.71,1101.52 1885.5,1100C 1868.9,1098.21 1852.9,1100.54 1837.5,1107C 1831.09,1109.47 1824.75,1112.14 1818.5,1115C 1790.01,1129.41 1761.68,1144.08 1733.5,1159C 1695.08,1177.81 1655.41,1193.47 1614.5,1206C 1583.29,1214.86 1551.62,1217.2 1519.5,1213C 1477.51,1204.64 1448.67,1180.81 1433,1141.5C 1472.54,1186.52 1521.04,1199.68 1578.5,1181C 1591.03,1177.6 1603.36,1173.6 1615.5,1169C 1663.5,1148.33 1711.5,1127.67 1759.5,1107C 1785.64,1097.3 1812.3,1090.14 1839.5,1085.5 Z"/></g>
<g><path style="opacity:0.958" fill="#d8b468" d="M 1637.5,1281.5 C 1638.68,1281.28 1639.68,1281.61 1640.5,1282.5C 1631.33,1313.84 1622.49,1345.17 1614,1376.5C 1629.83,1364.67 1645.67,1352.83 1661.5,1341C 1668.31,1336.68 1675.14,1336.52 1682,1340.5C 1686.36,1349.02 1684.86,1356.18 1677.5,1362C 1667.25,1366.29 1661.08,1363.13 1659,1352.5C 1649.08,1359.88 1639.24,1367.38 1629.5,1375C 1638.79,1391.09 1647.96,1407.25 1657,1423.5C 1659.76,1428.45 1663.59,1429.61 1668.5,1427C 1671.94,1422.79 1674.61,1418.12 1676.5,1413C 1679.54,1412.74 1681.88,1413.9 1683.5,1416.5C 1681,1425.67 1676.34,1433.5 1669.5,1440C 1657.11,1447.99 1645.95,1446.49 1636,1435.5C 1627.33,1420.17 1618.67,1404.83 1610,1389.5C 1604.38,1406.31 1599.21,1423.31 1594.5,1440.5C 1585.18,1441.67 1575.85,1441.83 1566.5,1441C 1580.57,1392.55 1594.57,1344.05 1608.5,1295.5C 1607.67,1295.17 1606.83,1294.83 1606,1294.5C 1600.87,1295.5 1595.7,1296.16 1590.5,1296.5C 1590.66,1290.69 1589.99,1290.35 1588.5,1295.5C 1581.17,1296.17 1573.83,1296.83 1566.5,1297.5C 1556.64,1331.92 1546.47,1366.25 1536,1400.5C 1526.35,1431.07 1505.51,1446.07 1473.5,1445.5C 1455.99,1446.39 1440.49,1441.39 1427,1430.5C 1418.7,1419.99 1415.37,1407.99 1417,1394.5C 1374.47,1385.67 1360.81,1361 1376,1320.5C 1386.76,1305.35 1401.26,1295.52 1419.5,1291C 1426.4,1289.28 1433.4,1288.28 1440.5,1288C 1459.51,1287.17 1478.51,1287.33 1497.5,1288.5C 1496.52,1291.1 1495.85,1293.76 1495.5,1296.5C 1488.8,1296.17 1482.13,1296.5 1475.5,1297.5C 1466.91,1326.71 1458.24,1355.88 1449.5,1385C 1470.81,1383.26 1485.31,1372.43 1493,1352.5C 1494.25,1347.58 1494.75,1342.58 1494.5,1337.5C 1497.5,1337.5 1500.5,1337.5 1503.5,1337.5C 1503.8,1362.41 1492.47,1379.58 1469.5,1389C 1462.31,1391.46 1454.98,1393.3 1447.5,1394.5C 1442.33,1424.83 1455,1438.66 1485.5,1436C 1505.12,1432.06 1518.28,1420.56 1525,1401.5C 1536.28,1366.72 1546.78,1331.72 1556.5,1296.5C 1549.47,1296.83 1542.47,1296.5 1535.5,1295.5C 1536.41,1292.94 1537.41,1290.44 1538.5,1288C 1571.87,1289.05 1604.87,1286.88 1637.5,1281.5 Z M 1430.5,1296.5 C 1435.51,1296.33 1440.51,1296.5 1445.5,1297C 1436.73,1326.94 1427.73,1356.77 1418.5,1386.5C 1405.08,1384.04 1393.58,1378.04 1384,1368.5C 1372.82,1346.39 1376.65,1327.22 1395.5,1311C 1406.17,1303.51 1417.83,1298.67 1430.5,1296.5 Z"/></g>
<g><path style="opacity:0.962" fill="#d8b468" d="M 396.5,1287.5 C 422.509,1287.17 448.509,1287.5 474.5,1288.5C 473.423,1290.73 472.756,1293.06 472.5,1295.5C 465.245,1295.19 458.079,1295.52 451,1296.5C 445.357,1314.41 440.357,1332.41 436,1350.5C 458.874,1330.62 482.04,1311.12 505.5,1292C 515.379,1286.61 525.379,1286.28 535.5,1291C 542.997,1298.7 544.497,1307.53 540,1317.5C 533.353,1325.1 525.686,1326.43 517,1321.5C 511.767,1312.93 513.267,1305.76 521.5,1300C 524.842,1298.65 528.175,1298.32 531.5,1299C 526.577,1295.29 521.243,1294.62 515.5,1297C 510.003,1299.25 505.003,1302.25 500.5,1306C 484.659,1319.68 468.993,1333.51 453.5,1347.5C 465.062,1371.62 476.895,1395.62 489,1419.5C 494.4,1430.28 502.9,1434.12 514.5,1431C 517.295,1429.21 519.795,1427.04 522,1424.5C 524.778,1419.28 527.278,1413.95 529.5,1408.5C 531.409,1409.35 533.409,1409.68 535.5,1409.5C 528.649,1439.26 510.315,1450.76 480.5,1444C 472.445,1440.61 466.278,1435.11 462,1427.5C 451.682,1406.86 441.349,1386.2 431,1365.5C 425.44,1385.62 416.44,1403.95 404,1420.5C 383.992,1441.84 359.492,1450 330.5,1445C 311.086,1439.34 302.919,1426.51 306,1406.5C 313.951,1382.77 329.784,1374.94 353.5,1383C 362.781,1390.18 365.614,1399.34 362,1410.5C 357.682,1419.74 350.515,1423.24 340.5,1421C 332.774,1416.49 330.607,1409.99 334,1401.5C 338.851,1394.66 345.351,1392.16 353.5,1394C 349.965,1389.25 345.131,1386.75 339,1386.5C 322.852,1388.82 314.019,1398.15 312.5,1414.5C 315.253,1429.75 324.419,1437.75 340,1438.5C 359.879,1435.63 374.545,1425.3 384,1407.5C 388.214,1399.74 391.881,1391.74 395,1383.5C 404.139,1354.58 412.972,1325.58 421.5,1296.5C 412.518,1295.67 403.518,1295.17 394.5,1295C 395.867,1292.7 396.534,1290.2 396.5,1287.5 Z"/></g>
<g><path style="opacity:0.962" fill="#d8b468" d="M 854.5,1287.5 C 880.167,1287.5 905.833,1287.5 931.5,1287.5C 931.167,1290.17 930.833,1292.83 930.5,1295.5C 923.167,1295.5 915.833,1295.5 908.5,1295.5C 903.708,1313.21 898.708,1330.88 893.5,1348.5C 893.833,1348.83 894.167,1349.17 894.5,1349.5C 916.833,1330.67 939.167,1311.83 961.5,1293C 970.267,1287.6 979.6,1286.26 989.5,1289C 998.496,1293.83 1002,1301.33 1000,1311.5C 996.716,1322.23 989.549,1326.4 978.5,1324C 971.288,1318.88 969.788,1312.38 974,1304.5C 978.237,1299.82 983.404,1297.99 989.5,1299C 984.577,1295.29 979.243,1294.62 973.5,1297C 968.508,1299.16 963.841,1301.83 959.5,1305C 943.326,1319.01 927.326,1333.18 911.5,1347.5C 923.822,1373.48 936.655,1399.14 950,1424.5C 961.206,1435.72 971.539,1435.05 981,1422.5C 983.321,1418.37 985.154,1414.04 986.5,1409.5C 988.655,1409.16 990.989,1409.16 993.5,1409.5C 986.687,1439.24 968.354,1450.74 938.5,1444C 931.159,1440.99 925.326,1436.16 921,1429.5C 909.806,1408.45 899.139,1387.11 889,1365.5C 882.83,1385.84 873.497,1404.51 861,1421.5C 841.087,1442.14 816.92,1449.97 788.5,1445C 768.485,1439.3 760.319,1426.13 764,1405.5C 771.81,1383.51 786.976,1375.68 809.5,1382C 820.24,1388.78 823.74,1398.28 820,1410.5C 814.332,1421.69 805.832,1424.52 794.5,1419C 789.804,1412.87 789.304,1406.37 793,1399.5C 798.112,1394.02 804.278,1392.18 811.5,1394C 802.711,1385.4 793.045,1384.4 782.5,1391C 770.767,1400.76 767.934,1412.6 774,1426.5C 782.829,1437.14 793.995,1440.64 807.5,1437C 823.704,1431.47 835.537,1420.97 843,1405.5C 848.448,1394.49 853.115,1383.16 857,1371.5C 864.428,1346.28 871.928,1321.12 879.5,1296C 870.482,1295.83 861.482,1295.33 852.5,1294.5C 853.577,1292.27 854.244,1289.94 854.5,1287.5 Z"/></g>
<g><path style="opacity:0.97" fill="#d8b468" d="M 595.5,1338.5 C 596.5,1338.5 597.5,1338.5 598.5,1338.5C 595.001,1350.15 591.835,1361.82 589,1373.5C 596.361,1360.47 606.194,1349.64 618.5,1341C 625.527,1337.73 632.527,1337.73 639.5,1341C 640.787,1342.41 641.954,1343.91 643,1345.5C 658.424,1342.88 673.924,1340.55 689.5,1338.5C 682.339,1365.81 675.173,1393.14 668,1420.5C 666.702,1431.87 671.536,1436.04 682.5,1433C 691.413,1426.42 698.579,1418.25 704,1408.5C 715.689,1386.93 724.523,1364.26 730.5,1340.5C 740.19,1340.17 749.856,1340.5 759.5,1341.5C 750.954,1369.85 742.954,1398.35 735.5,1427C 735.977,1433.24 738.644,1434.57 743.5,1431C 748.276,1425.61 751.61,1419.45 753.5,1412.5C 756.686,1412.34 759.353,1413.34 761.5,1415.5C 758.268,1424.81 752.935,1432.64 745.5,1439C 735.677,1445.03 725.344,1446.03 714.5,1442C 711.894,1440.06 710.061,1437.56 709,1434.5C 708.505,1427.79 708.505,1421.13 709,1414.5C 702.779,1426.39 693.612,1435.22 681.5,1441C 670.841,1445.57 660.174,1445.57 649.5,1441C 641.335,1434.84 638.501,1426.68 641,1416.5C 645.995,1394.69 651.495,1373.02 657.5,1351.5C 652.817,1352.07 648.15,1352.74 643.5,1353.5C 641.997,1361.5 637.164,1365.83 629,1366.5C 620.816,1365.98 616.149,1361.65 615,1353.5C 600.424,1368.96 589.091,1386.63 581,1406.5C 576.555,1417.72 572.388,1429.06 568.5,1440.5C 559.167,1441.83 549.833,1441.83 540.5,1440.5C 549.249,1411 557.916,1381.5 566.5,1352C 560.566,1352.63 554.566,1353.13 548.5,1353.5C 548.5,1350.5 548.5,1347.5 548.5,1344.5C 564.375,1343.06 580.042,1341.06 595.5,1338.5 Z"/></g>
<g><path style="opacity:0.969" fill="#d8b468" d="M 1180.5,1338.5 C 1181.5,1338.5 1182.5,1338.5 1183.5,1338.5C 1179.85,1350.11 1176.68,1361.77 1174,1373.5C 1180.38,1362.28 1188.54,1352.45 1198.5,1344C 1209.13,1336.17 1219.13,1336.67 1228.5,1345.5C 1244.75,1342.93 1261.08,1340.93 1277.5,1339.5C 1273.87,1352.54 1270.37,1365.54 1267,1378.5C 1272.91,1367.18 1280.41,1357.01 1289.5,1348C 1301.52,1338.91 1314.52,1337.24 1328.5,1343C 1338.69,1349.58 1342.19,1358.74 1339,1370.5C 1334.8,1385.11 1329.8,1399.45 1324,1413.5C 1322.39,1418.39 1321.22,1423.39 1320.5,1428.5C 1320.58,1434.02 1323.25,1435.86 1328.5,1434C 1333.9,1428.04 1337.9,1421.2 1340.5,1413.5C 1342.77,1412.64 1345.1,1412.64 1347.5,1413.5C 1344.64,1426.73 1337.31,1436.56 1325.5,1443C 1300.93,1448.43 1290.76,1438.93 1295,1414.5C 1299.94,1399.69 1305.27,1385.02 1311,1370.5C 1312.44,1365.24 1312.77,1359.9 1312,1354.5C 1309.56,1349.78 1305.73,1348.28 1300.5,1350C 1295.16,1352.33 1290.66,1355.83 1287,1360.5C 1269.35,1385.13 1256.52,1412.13 1248.5,1441.5C 1239.14,1441.83 1229.81,1441.5 1220.5,1440.5C 1228.99,1411.54 1237.32,1382.54 1245.5,1353.5C 1240.11,1352.51 1234.78,1352.84 1229.5,1354.5C 1224.09,1366.25 1215.76,1369.08 1204.5,1363C 1202.06,1360.29 1200.56,1357.13 1200,1353.5C 1185.07,1369.67 1173.41,1388 1165,1408.5C 1160.87,1419.06 1157.03,1429.73 1153.5,1440.5C 1144.17,1441.83 1134.83,1441.83 1125.5,1440.5C 1134.07,1410.95 1142.74,1381.45 1151.5,1352C 1145.57,1352.63 1139.57,1353.13 1133.5,1353.5C 1133.5,1350.5 1133.5,1347.5 1133.5,1344.5C 1149.38,1343.06 1165.04,1341.06 1180.5,1338.5 Z"/></g>
<g><path style="opacity:0.97" fill="#d8b468" d="M 1071.5,1339.5 C 1086.16,1338.48 1100.5,1340.15 1114.5,1344.5C 1115.61,1345.72 1115.78,1347.06 1115,1348.5C 1106.22,1375.16 1098.06,1402 1090.5,1429C 1090.69,1435.55 1093.69,1437.55 1099.5,1435C 1105.32,1429.39 1108.99,1422.56 1110.5,1414.5C 1112.77,1413.64 1115.1,1413.64 1117.5,1414.5C 1116.27,1425.8 1111.27,1434.97 1102.5,1442C 1089.93,1447.83 1078.43,1446.33 1068,1437.5C 1066.07,1434.05 1064.74,1430.39 1064,1426.5C 1049.75,1443.7 1032.25,1448.2 1011.5,1440C 999.703,1429.01 995.536,1415.51 999,1399.5C 1003.18,1378.99 1014.34,1363.49 1032.5,1353C 1044.76,1345.97 1057.76,1341.47 1071.5,1339.5 Z M 1077.5,1347.5 C 1079.86,1347.34 1082.19,1347.5 1084.5,1348C 1078.98,1369.22 1071.48,1389.72 1062,1409.5C 1057.94,1416.89 1053.11,1423.72 1047.5,1430C 1032.61,1438.17 1025.61,1433.5 1026.5,1416C 1027.52,1392.62 1036.86,1373.29 1054.5,1358C 1061.51,1352.83 1069.17,1349.33 1077.5,1347.5 Z"/></g>
</svg>
