<svg width="1874" height="1394" viewBox="0 0 1874 1394" fill="none" xmlns="http://www.w3.org/2000/svg">
<path d="M1116.2 111.06C1099.26 100.46 1080.15 97.8701 1068.17 97.8701C1056.19 97.8701 1032.5 104.42 1015.26 108.85C998.02 113.28 964.13 117.62 954.28 118.81V127.92C954.28 127.92 986.13 127.28 1010.59 121.15C1035.05 115.02 1055.26 107.92 1071.65 107.92C1088.04 107.92 1109.44 113.62 1121.8 130.6C1134.16 147.58 1128.89 162.05 1123.88 174.98C1118.87 187.91 1114.79 199.15 1114.79 199.15L1126.51 202.92C1126.51 202.92 1138.87 178.73 1142.05 157.66C1145.24 136.59 1133.14 121.65 1116.2 111.06Z" fill="#D8B568"/>
<path d="M1126.39 224.59C1129.96 219.53 1133.08 211.02 1133.08 211.02L1100.72 200.93L1114.12 230.55C1114.12 230.55 1122.82 229.65 1126.39 224.59Z" fill="#D8B568"/>
<path d="M1075.05 258.5L1098.41 250.72L1102.65 234.72L1086.18 219.31L1075.05 258.5Z" fill="#D8B568"/>
<path d="M1119.74 256.84C1127.39 256.84 1133.59 251.911 1133.59 245.83C1133.59 239.75 1127.39 234.82 1119.74 234.82C1112.09 234.82 1105.89 239.75 1105.89 245.83C1105.89 251.911 1112.09 256.84 1119.74 256.84Z" fill="#D8B568"/>
<path d="M1151.04 211.23C1158.25 211.23 1164.1 206.47 1164.1 200.59C1164.1 194.71 1158.25 189.95 1151.04 189.95C1143.83 189.95 1137.98 194.71 1137.98 200.59C1137.98 206.46 1143.83 211.23 1151.04 211.23Z" fill="#D8B568"/>
<path d="M1162.34 186.63C1169.55 186.63 1175.4 181.866 1175.4 175.99C1175.4 170.113 1169.55 165.35 1162.34 165.35C1155.13 165.35 1149.28 170.113 1149.28 175.99C1149.28 181.866 1155.13 186.63 1162.34 186.63Z" fill="#D8B568"/>
<path d="M1165.9 158.9C1173.11 158.9 1178.96 154.136 1178.96 148.26C1178.96 142.384 1173.11 137.62 1165.9 137.62C1158.69 137.62 1152.84 142.384 1152.84 148.26C1152.84 154.136 1158.69 158.9 1165.9 158.9Z" fill="#D8B568"/>
<path d="M1156.99 132.34C1164.2 132.34 1170.05 127.576 1170.05 121.7C1170.05 115.823 1164.2 111.06 1156.99 111.06C1149.78 111.06 1143.93 115.823 1143.93 121.7C1143.93 127.576 1149.78 132.34 1156.99 132.34Z" fill="#D8B568"/>
<path d="M1136.73 111.06C1143.94 111.06 1149.79 106.297 1149.79 100.42C1149.79 94.544 1143.94 89.7803 1136.73 89.7803C1129.52 89.7803 1123.67 94.544 1123.67 100.42C1123.67 106.297 1129.52 111.06 1136.73 111.06Z" fill="#D8B568"/>
<path d="M1105.48 96.0798C1112.69 96.0798 1118.54 91.3198 1118.54 85.4398C1118.54 79.5598 1112.69 74.7998 1105.48 74.7998C1098.27 74.7998 1092.42 79.5598 1092.42 85.4398C1092.42 91.3198 1098.27 96.0798 1105.48 96.0798Z" fill="#D8B568"/>
<path d="M1074.06 89.78C1081.27 89.78 1087.12 85.02 1087.12 79.14C1087.12 73.26 1081.27 68.5 1074.06 68.5C1066.85 68.5 1061 73.26 1061 79.14C1061 85.02 1066.84 89.78 1074.06 89.78Z" fill="#D8B568"/>
<path d="M1040.17 92.5895C1047.38 92.5895 1053.23 87.8259 1053.23 81.9496C1053.23 76.0733 1047.38 71.3096 1040.17 71.3096C1032.96 71.3096 1027.11 76.0733 1027.11 81.9496C1027.11 87.8259 1032.96 92.5895 1040.17 92.5895Z" fill="#D8B568"/>
<path d="M1009.94 102.63C1017.15 102.63 1023 97.8659 1023 91.9896C1023 86.1133 1017.15 81.3496 1009.94 81.3496C1002.73 81.3496 996.88 86.1133 996.88 91.9896C996.88 97.8659 1002.73 102.63 1009.94 102.63Z" fill="#D8B568"/>
<path d="M979.02 108.93C986.23 108.93 992.08 104.17 992.08 98.2904C992.08 92.4104 986.23 87.6504 979.02 87.6504C971.81 87.6504 965.96 92.4104 965.96 98.2904C965.97 104.16 971.81 108.93 979.02 108.93Z" fill="#D8B568"/>
<path d="M935.12 38.5895C942.333 38.5895 948.18 33.8259 948.18 27.9496C948.18 22.0733 942.333 17.3096 935.12 17.3096C927.907 17.3096 922.06 22.0733 922.06 27.9496C922.06 33.8259 927.907 38.5895 935.12 38.5895Z" fill="#D8B568"/>
<path d="M935.12 130.76C942.333 130.76 948.18 125.997 948.18 120.12C948.18 114.244 942.333 109.48 935.12 109.48C927.907 109.48 922.06 114.244 922.06 120.12C922.06 125.997 927.907 130.76 935.12 130.76Z" fill="#D8B568"/>
<path d="M935.12 105.33C950.915 105.33 963.72 94.8937 963.72 82.02C963.72 69.1462 950.915 58.71 935.12 58.71C919.325 58.71 906.52 69.1462 906.52 82.02C906.52 94.8937 919.325 105.33 935.12 105.33Z" fill="#D8B568"/>
<path d="M935.12 154.37C942.333 154.37 948.18 149.606 948.18 143.73C948.18 137.854 942.333 133.09 935.12 133.09C927.907 133.09 922.06 137.854 922.06 143.73C922.06 149.606 927.907 154.37 935.12 154.37Z" fill="#D8B568"/>
<path d="M935.12 177.99C942.333 177.99 948.18 173.226 948.18 167.35C948.18 161.474 942.333 156.71 935.12 156.71C927.907 156.71 922.06 161.474 922.06 167.35C922.06 173.226 927.907 177.99 935.12 177.99Z" fill="#D8B568"/>
<path d="M935.12 229.95C942.333 229.95 948.18 225.186 948.18 219.31C948.18 213.434 942.333 208.67 935.12 208.67C927.907 208.67 922.06 213.434 922.06 219.31C922.06 225.186 927.907 229.95 935.12 229.95Z" fill="#D8B568"/>
<path d="M952.59 36.2498L968.13 44.9297V10.9697L952.59 19.4797V36.2498Z" fill="#D8B568"/>
<path d="M977.39 240.5V198.29L952.59 208.87V229.71L977.39 240.5Z" fill="#D8B568"/>
<path d="M955.98 56.9297H913.61L926.44 42.8896H943.16L955.98 56.9297Z" fill="#D8B568"/>
<path d="M955.98 0L943.16 14.04H926.44L913.61 0H955.98Z" fill="#D8B568"/>
<path d="M959.26 181.78L944.46 202.46H925.14L910.34 181.78H959.26Z" fill="#D8B568"/>
<path d="M1115.94 263.19L1096.32 334.46C1096.32 334.46 1022.06 308.17 934.79 308.17C847.52 308.17 773.26 334.46 773.26 334.46L753.64 263.19L765.19 257.83C765.19 257.83 784.13 272.12 796.99 276.46C809.86 280.81 818.52 274.55 818.52 274.55L816.52 262.63L826.33 267.15L830.79 257.19L823.82 252.51L830.7 246.16C830.7 246.16 823.41 240 818.83 239.96C814.24 239.93 809.01 248.93 809.01 248.93C809.01 248.93 798.3 244.55 799.58 233.36C800.86 222.17 817.45 219.19 823.19 227.04C828.92 234.89 834.34 247.27 834.34 247.27L840.39 245.87C840.39 245.87 835.11 234.63 831.67 229.91C828.23 225.19 822.5 219.38 822.5 208.46C822.5 197.55 833.2 182.17 833.2 182.17C833.2 182.17 842.82 187.53 847.34 198.29C851.86 209.06 847.21 216.83 845.62 225.19C844.02 233.55 844.56 245.61 844.56 245.61H848.22C848.22 245.61 847.35 239.4 850.5 227.49C853.64 215.57 861.2 210.63 866.85 210.63C872.5 210.63 881.04 215.15 880.82 224.59C880.61 234.04 872.21 236.89 872.21 236.89C870.42 230.21 863.29 227.7 858.02 231.23C852.76 234.76 854.46 242.04 854.46 242.04L861.97 246.04L856.02 252.17L863.32 258.55L872.32 250.98L874.54 263.83C903.41 266.63 913.26 254.38 918.62 247.57C923.97 240.76 929.32 233.7 934.8 233.7C940.28 233.7 945.63 240.76 950.98 247.57C956.33 254.38 966.19 266.63 995.06 263.83L997.28 250.98L1006.28 258.55L1013.58 252.17L1007.63 246.04L1015.14 242.04C1015.14 242.04 1016.84 234.76 1011.58 231.23C1006.31 227.7 999.18 230.21 997.39 236.89C997.39 236.89 988.99 234.04 988.77 224.59C988.56 215.15 997.09 210.63 1002.74 210.63C1008.39 210.63 1015.95 215.57 1019.1 227.49C1022.24 239.4 1021.37 245.61 1021.37 245.61H1025.03C1025.03 245.61 1025.58 233.55 1023.98 225.19C1022.39 216.83 1017.74 209.06 1022.26 198.29C1026.78 187.53 1036.4 182.17 1036.4 182.17C1036.4 182.17 1047.1 197.55 1047.1 208.46C1047.1 219.38 1041.37 225.19 1037.93 229.91C1034.49 234.63 1029.21 245.87 1029.21 245.87L1035.26 247.27C1035.26 247.27 1040.67 234.89 1046.41 227.04C1052.14 219.19 1068.74 222.17 1070.02 233.36C1071.3 244.55 1060.59 248.93 1060.59 248.93C1060.59 248.93 1055.36 239.93 1050.77 239.96C1046.19 240 1038.9 246.16 1038.9 246.16L1045.78 252.51L1038.81 257.19L1043.27 267.15L1053.08 262.63L1051.08 274.55C1051.08 274.55 1059.74 280.81 1072.6 276.46C1085.47 272.12 1104.41 257.83 1104.41 257.83L1115.94 263.19Z" fill="#D8B568"/>
<path d="M1873.36 1093.35C1872.51 1071.39 1853.4 1027.9 1787.67 1033.26C1721.94 1038.62 1654.93 1073.86 1603.72 1096.58C1552.51 1119.3 1510.98 1136.92 1458.75 1135.39C1406.52 1133.86 1373.53 1088.92 1373.53 1088.92C1387.67 1123.9 1429.03 1162.19 1478.71 1162.19C1528.39 1162.19 1561.94 1155.81 1647.8 1117.51C1733.66 1079.21 1738.12 1064.53 1783.34 1051.25C1828.56 1037.97 1849.71 1053.68 1861.17 1067.59C1872.64 1081.5 1874.45 1117.44 1843.97 1128.74C1812.97 1140.23 1794.33 1123.68 1787.66 1118.27C1780.99 1112.87 1778.4 1107.38 1777.38 1107.38C1776.36 1107.38 1772.24 1111.51 1771.1 1119.29C1769.96 1127.07 1771.95 1162.18 1814.92 1160.06C1861.76 1157.76 1874.21 1115.31 1873.36 1093.35Z" fill="#D8B568"/>
<path d="M754.8 199.14C754.8 199.14 750.72 187.91 745.71 174.97C740.7 162.03 735.43 147.57 747.79 130.59C760.15 113.61 781.55 107.91 797.94 107.91C814.33 107.91 834.54 115.02 859 121.14C883.46 127.26 915.31 127.91 915.31 127.91V118.8C905.46 117.61 871.57 113.27 854.33 108.84C837.09 104.41 813.4 97.8604 801.42 97.8604C789.44 97.8604 770.34 100.46 753.39 111.05C736.45 121.65 724.35 136.58 727.53 157.65C730.71 178.71 743.07 202.91 743.07 202.91L754.8 199.14Z" fill="#D8B568"/>
<path d="M743.2 224.59C746.77 229.65 755.47 230.55 755.47 230.55L768.87 200.93L736.51 211.02C736.52 211.01 739.64 219.52 743.2 224.59Z" fill="#D8B568"/>
<path d="M794.54 258.5L783.42 219.31L766.94 234.72L771.19 250.72L794.54 258.5Z" fill="#D8B568"/>
<path d="M749.86 256.84C757.509 256.84 763.71 251.911 763.71 245.83C763.71 239.75 757.509 234.82 749.86 234.82C742.211 234.82 736.01 239.75 736.01 245.83C736.01 251.911 742.211 256.84 749.86 256.84Z" fill="#D8B568"/>
<path d="M718.55 211.23C725.76 211.23 731.61 206.47 731.61 200.59C731.61 194.71 725.76 189.95 718.55 189.95C711.34 189.95 705.49 194.71 705.49 200.59C705.5 206.46 711.34 211.23 718.55 211.23Z" fill="#D8B568"/>
<path d="M707.26 186.63C714.473 186.63 720.32 181.866 720.32 175.99C720.32 170.113 714.473 165.35 707.26 165.35C700.047 165.35 694.2 170.113 694.2 175.99C694.2 181.866 700.047 186.63 707.26 186.63Z" fill="#D8B568"/>
<path d="M703.69 158.9C710.903 158.9 716.75 154.136 716.75 148.26C716.75 142.384 710.903 137.62 703.69 137.62C696.477 137.62 690.63 142.384 690.63 148.26C690.63 154.136 696.477 158.9 703.69 158.9Z" fill="#D8B568"/>
<path d="M712.61 132.34C719.823 132.34 725.67 127.576 725.67 121.7C725.67 115.823 719.823 111.06 712.61 111.06C705.397 111.06 699.55 115.823 699.55 121.7C699.55 127.576 705.397 132.34 712.61 132.34Z" fill="#D8B568"/>
<path d="M732.86 111.06C740.073 111.06 745.92 106.297 745.92 100.42C745.92 94.544 740.073 89.7803 732.86 89.7803C725.647 89.7803 719.8 94.544 719.8 100.42C719.8 106.297 725.647 111.06 732.86 111.06Z" fill="#D8B568"/>
<path d="M764.12 96.0798C771.33 96.0798 777.18 91.3198 777.18 85.4398C777.18 79.5598 771.33 74.7998 764.12 74.7998C756.91 74.7998 751.06 79.5598 751.06 85.4398C751.06 91.3198 756.9 96.0798 764.12 96.0798Z" fill="#D8B568"/>
<path d="M795.54 89.78C802.75 89.78 808.6 85.02 808.6 79.14C808.6 73.26 802.75 68.5 795.54 68.5C788.33 68.5 782.48 73.26 782.48 79.14C782.48 85.02 788.33 89.78 795.54 89.78Z" fill="#D8B568"/>
<path d="M829.42 92.5895C836.633 92.5895 842.48 87.8259 842.48 81.9496C842.48 76.0733 836.633 71.3096 829.42 71.3096C822.207 71.3096 816.36 76.0733 816.36 81.9496C816.36 87.8259 822.207 92.5895 829.42 92.5895Z" fill="#D8B568"/>
<path d="M859.66 102.63C866.873 102.63 872.72 97.8659 872.72 91.9896C872.72 86.1133 866.873 81.3496 859.66 81.3496C852.447 81.3496 846.6 86.1133 846.6 91.9896C846.6 97.8659 852.447 102.63 859.66 102.63Z" fill="#D8B568"/>
<path d="M890.57 108.93C897.78 108.93 903.63 104.17 903.63 98.2904C903.63 92.4104 897.78 87.6504 890.57 87.6504C883.36 87.6504 877.51 92.4104 877.51 98.2904C877.51 104.16 883.36 108.93 890.57 108.93Z" fill="#D8B568"/>
<path d="M917.01 19.4797L901.46 10.9697V44.9297L917.01 36.2498V19.4797Z" fill="#D8B568"/>
<path d="M892.21 240.5L917.01 229.71V208.87L892.21 198.29V240.5Z" fill="#D8B568"/>
<path d="M781.03 915.22C822.98 955.19 873.8 987.07 932.17 1009.99C933.04 1010.34 933.92 1010.68 934.79 1011.01C935.67 1010.68 936.55 1010.34 937.41 1009.99C995.78 987.07 1046.6 955.19 1088.55 915.22C1124.27 881.18 1153.78 841.12 1176.25 796.12C1222.07 704.42 1223.39 623.32 1223.39 614.38V511.21H1214.91C1179.69 511.21 1151.04 482.5 1151.04 447.2V438.56H934.8H718.55V447.2C718.55 482.5 689.89 511.21 654.68 511.21H646.2V614.38C646.2 623.32 647.52 704.42 693.34 796.12C715.8 841.12 745.31 881.18 781.03 915.22ZM663.15 527.77C701.01 523.8 731.18 493.52 735.08 455.56H934.8H1134.52C1138.42 493.52 1168.59 523.8 1206.45 527.77V614.38C1206.45 622.91 1205.18 700.3 1161.11 788.51C1114.05 882.7 1037.94 951.38 934.81 992.75C831.68 951.38 755.57 882.7 708.51 788.51C664.43 700.3 663.17 622.91 663.17 614.38V527.77H663.15Z" fill="#D8B568"/>
<path d="M1741.73 890.29C1772.31 890.63 1801.51 868.85 1800.67 842.59C1799.82 816.32 1788.86 796.34 1788.86 796.34C1788.86 796.34 1788.35 832.17 1781.05 838.29C1773.75 844.42 1754.56 845.78 1741.13 830.12C1727.71 814.46 1732.22 792.68 1732.22 792.68C1741.3 777.87 1752.26 756.34 1752.26 756.34C1768.4 753.61 1808.31 723.15 1793.28 672.25C1778.9 623.56 1734.93 604.85 1705.64 604.59C1676.34 604.34 1658.76 614.29 1658.76 614.29C1650.23 599.74 1625.51 586.85 1610.86 582.12C1596.21 577.4 1561.05 568.21 1561.05 568.21C1590.36 566.93 1600.17 548.51 1605.6 536C1611.04 523.49 1618.38 520.02 1622.02 520.02C1625.65 520.02 1634.12 521.81 1635.01 530.68C1635.9 539.55 1628.45 545.29 1628.45 545.29L1632.65 545.23L1630.48 548.42C1659.01 538.72 1665.77 513.95 1653.53 486.63C1641.31 459.32 1618.84 457.27 1610.52 457.36C1602.2 457.44 1583.22 457.91 1573.15 457.91C1563.09 457.91 1558.88 451.02 1557.73 446.17C1556.59 441.32 1555.44 434.17 1555.44 434.17C1555.44 434.17 1572.25 424.21 1571.75 395.23C1571.24 366.25 1556.71 353.49 1556.71 353.49C1562.58 347.23 1572.56 320.51 1561.26 303.91C1549.96 287.32 1532.55 287.74 1532.55 287.74C1530.85 279.32 1516.58 264.44 1496.08 264.44C1475.56 264.44 1465.56 277.91 1465.56 277.91C1465.56 277.91 1460.85 268.4 1443.02 271.66C1425.18 274.91 1419.51 285.51 1419.51 285.51L1351.23 226.08L1389.7 220.34L1362.7 193.66L1369.52 156.38L1335.69 173.68L1302.13 155.87L1308.69 193.27L1280.98 219.57L1318.76 225.02L1335.26 259.15L1349.46 230.68L1412.71 308.04C1412.71 308.04 1357.88 318.7 1346.28 326.55C1334.68 334.4 1333.93 343.27 1336.17 350.72C1338.43 358.17 1351.63 356.76 1351.63 356.76C1351.63 356.76 1343.72 363.04 1344.64 365.06C1345.58 367.08 1347.29 366.81 1347.29 366.81C1347.29 366.81 1346.65 372.63 1350.13 374.55C1353.61 376.46 1358.15 375.4 1358.15 375.4C1358.15 375.4 1365.04 377.74 1371.87 377.74C1378.71 377.74 1410.28 377.74 1410.28 377.74C1420.66 387.44 1433.4 386.68 1433.4 386.68C1445.5 401.61 1433.91 422.55 1407.92 448.21C1381.93 473.87 1377.3 504 1377.3 504C1366.59 507.91 1361.84 513.02 1361.84 513.02C1344.15 501.98 1325.26 492.8 1319.23 489.94C1319.59 463.12 1319.94 448.11 1319.94 447.79L1320.35 430.43L1303.02 430.4C1264.12 430.32 1232.48 398.55 1232.48 359.57V341.61H1082.7C1033.67 321.73 934.79 318.89 934.79 318.89C934.79 318.89 835.91 321.73 786.88 341.61H637.1V359.57C637.1 398.55 605.46 430.32 566.56 430.4L549.23 430.43L549.63 447.79C549.64 448.14 550.05 466.3 550.46 498.43C542.78 502.46 533.65 507.5 524.81 513.02C524.81 513.02 520.05 507.91 509.35 504C509.35 504 504.72 473.87 478.73 448.21C452.75 422.55 441.15 401.61 453.25 386.68C453.25 386.68 465.98 387.44 476.37 377.74C476.37 377.74 507.93 377.74 514.78 377.74C521.62 377.74 528.49 375.4 528.49 375.4C528.49 375.4 533.03 376.46 536.51 374.55C539.99 372.63 539.35 366.81 539.35 366.81C539.35 366.81 541.08 367.08 542 365.06C542.94 363.04 535.01 356.76 535.01 356.76C535.01 356.76 548.22 358.17 550.47 350.72C552.73 343.27 551.96 334.4 540.37 326.55C528.77 318.7 473.93 308.04 473.93 308.04L532.01 237L550.56 268.02L564.25 233.29L601.38 224.74L572.02 200.49L575.58 162.57L543.55 183L508.7 168.06L518.13 205.08L494.24 233.1L525.53 235.23L467.1 285.51C467.1 285.51 461.43 274.91 443.6 271.66C425.77 268.4 421.05 277.91 421.05 277.91C421.05 277.91 411.05 264.44 390.54 264.44C370.02 264.44 355.76 279.32 354.06 287.74C354.06 287.74 336.66 287.32 325.36 303.91C314.06 320.51 324.04 347.23 329.9 353.49C329.9 353.49 315.38 366.25 314.87 395.23C314.36 424.21 331.18 434.17 331.18 434.17C331.18 434.17 330.03 441.32 328.88 446.17C327.73 451.02 323.53 457.91 313.46 457.91C303.4 457.91 284.42 457.44 276.1 457.36C267.78 457.27 245.32 459.32 233.08 486.63C220.85 513.95 227.6 538.72 256.14 548.42L253.97 545.23L258.17 545.29C258.17 545.29 250.72 539.55 251.6 530.68C252.5 521.81 260.97 520.02 264.6 520.02C268.22 520.02 275.58 523.49 281.01 536C286.45 548.51 296.26 566.93 325.56 568.21C325.56 568.21 290.4 577.4 275.76 582.12C261.11 586.85 236.39 599.74 227.86 614.29C227.86 614.29 210.28 604.34 180.98 604.59C151.68 604.85 107.72 623.56 93.3402 672.25C78.3002 723.15 118.22 753.61 134.35 756.34C134.35 756.34 145.31 777.87 154.4 792.68C154.4 792.68 158.9 814.46 145.48 830.12C132.07 845.78 112.87 844.42 105.56 838.29C98.2602 832.17 97.7502 796.34 97.7502 796.34C97.7502 796.34 86.7902 816.32 85.9502 842.59C85.1002 868.85 114.32 890.63 144.9 890.29C169.46 890.02 183.82 878.43 190.54 864.26C190.86 869.11 191.36 878.47 191.18 888.51C190.92 903.06 187.62 913.91 169.78 923.87C169.78 923.87 178.78 924.51 187.7 920.76L187.36 927.74C187.36 927.74 200.69 930.89 210.71 914.89C210.71 914.89 215.39 921.78 216.58 931.83C217.77 941.87 216.75 945.44 216.75 945.44C216.75 945.44 211.21 945.03 208.07 940.66C208.07 940.66 202.99 950.26 202.41 963.37C200.42 963.18 198.43 963.03 196.45 962.93C159.38 961.15 132.5 977.23 123.2 985.78C113.9 994.34 109.74 999.49 111.69 1000.63C113.65 1001.78 114.03 1001.1 133.77 990.81C153.52 980.51 197.21 976.51 240.35 990.81C272.69 1001.52 314.24 1018.6 333.02 1026.48C333.09 1026.88 333.14 1027.26 333.22 1027.66C341.15 1068.68 371.3 1093.87 417.67 1092.17C464.04 1090.46 480.52 1062.04 480.86 1045.36C481.2 1028.68 474.28 1015.34 462.69 1006.72C451.09 998.1 434.66 1000.27 434.92 1003.4C435.17 1006.53 439.12 1010.93 444.09 1021.66C449.06 1032.38 448.76 1054.89 438.74 1070.38C428.72 1085.87 392.37 1092.85 369.95 1068.51C347.53 1044.17 351.61 1017.61 365.2 994.98C378.78 972.34 415.3 950.55 473.39 978.38C531.48 1006.21 558.66 1031.06 668.39 1085.53C778.11 1140 843.59 1157.87 871.49 1162.85C899.39 1167.83 932.8 1167.74 932.8 1167.74V1164.63C898.62 1160 854.04 1153.53 773.78 1112.42C693.53 1071.32 641.04 1039.15 605.38 1018.21C569.71 997.27 502.62 951.91 466.27 938.98C448.17 932.53 429.43 930.14 412.96 931.03C409.54 925.52 403.46 916.11 395.65 905.61C383.3 889.02 370.3 881.95 361.21 874.04C352.13 866.12 334.81 850.29 332.51 840.51C330.21 830.72 333.36 818.55 339.81 807.49C346.26 796.42 365.2 777.06 371.57 759.19C377.94 741.32 381.25 714.76 374.24 681.44C374.24 681.44 399.93 682.98 422.52 670.89C445.11 658.81 454.36 650.29 462.1 640.42C462.1 640.42 479.34 647.74 502.78 653.44C526.21 659.15 544.43 664.46 552.33 667.34C552.82 667.52 553.29 667.7 553.74 667.88C555.1 679.12 557.04 691.06 559.63 703.57C557.96 716.14 556.03 729.06 556.03 729.06L551.7 722.93C551.7 722.93 551.89 729.32 552.4 735.19C552.91 741.06 552.8 745.15 544.27 745.83L543.04 742.76C543.04 742.76 533.42 742.08 527.4 740.45C521.37 738.83 521.31 737.58 519.53 737.84C517.75 738.09 515.05 744.04 514.63 750.68C514.2 757.32 518.36 768.72 522.1 773.87C525.83 779.02 528 781.05 529.56 780.86C531.12 780.67 532.1 775.5 542.74 773.52C553.38 771.54 559.58 772.72 567.7 763.91C570.19 761.2 571.68 757.26 572.53 753.11C585.11 793.21 603.84 836.5 630.35 879.23C662.36 930.84 702.24 976.08 748.88 1013.68C801.69 1056.25 863.25 1089 931.9 1111.05C932.85 1111.36 933.8 1111.66 934.75 1111.96C935.71 1111.66 936.66 1111.36 937.6 1111.05C1006.25 1089 1067.81 1056.25 1120.62 1013.68C1167.26 976.08 1207.14 930.84 1239.15 879.23C1274.27 822.61 1295.77 765 1307.33 715.17L1313.35 733.4C1313.35 733.4 1310.77 755.1 1318.88 763.91C1326.98 772.72 1333.2 771.54 1343.84 773.52C1354.48 775.5 1355.47 780.67 1357.02 780.86C1358.58 781.05 1360.74 779.02 1364.48 773.87C1368.21 768.72 1372.37 757.32 1371.95 750.68C1371.52 744.04 1368.83 738.09 1367.04 737.84C1365.25 737.58 1365.19 738.83 1359.18 740.45C1353.16 742.08 1343.54 742.76 1343.54 742.76L1342.3 745.83C1333.77 745.15 1333.67 741.06 1334.18 735.19C1334.69 729.32 1334.88 722.93 1334.88 722.93L1330.55 729.06C1330.55 729.06 1324.69 690.06 1324.62 681.7C1324.56 673.34 1326.34 670.21 1334.24 667.34C1342.13 664.46 1360.35 659.15 1383.79 653.44C1407.23 647.74 1424.47 640.42 1424.47 640.42C1432.19 650.29 1441.45 658.81 1464.04 670.89C1486.63 682.98 1512.33 681.44 1512.33 681.44C1505.32 714.76 1508.64 741.32 1515 759.19C1521.37 777.06 1540.31 796.42 1546.76 807.49C1553.22 818.55 1556.36 830.72 1554.06 840.51C1551.77 850.29 1534.44 866.12 1525.35 874.04C1516.27 881.95 1503.27 889.02 1490.91 905.61C1482.47 916.95 1476.05 927.03 1472.83 932.28C1453.9 929.21 1430.32 930.93 1407.73 938.98C1371.38 951.91 1304.29 997.27 1268.63 1018.21C1232.96 1039.15 1180.47 1071.32 1100.22 1112.42C1019.96 1153.53 975.37 1160 941.2 1164.63V1167.74C941.2 1167.74 974.62 1167.83 1002.51 1162.85C1030.41 1157.87 1095.89 1140 1205.62 1085.53C1315.34 1031.06 1342.52 1006.21 1400.61 978.38C1458.7 950.55 1495.22 972.34 1508.81 994.98C1522.39 1017.61 1526.47 1044.17 1504.05 1068.51C1481.63 1092.85 1445.28 1085.87 1435.26 1070.38C1425.24 1054.89 1424.94 1032.38 1429.91 1021.66C1434.88 1010.93 1438.83 1006.53 1439.08 1003.4C1439.34 1000.27 1422.9 998.1 1411.31 1006.72C1399.72 1015.34 1392.8 1028.68 1393.14 1045.36C1393.48 1062.04 1409.95 1090.46 1456.33 1092.17C1501.66 1093.83 1531.48 1069.78 1540.21 1030.37C1552.11 1025.31 1602.49 1004.1 1640.28 991.57C1683.42 977.27 1727.12 981.27 1746.86 991.57C1766.6 1001.87 1766.99 1002.55 1768.94 1001.4C1770.89 1000.25 1766.72 995.1 1757.43 986.55C1748.13 978 1721.25 961.91 1684.18 963.7C1683.67 950.42 1678.51 940.66 1678.51 940.66C1675.36 945.03 1669.83 945.44 1669.83 945.44C1669.83 945.44 1668.81 941.87 1670 931.83C1671.19 921.78 1675.86 914.89 1675.86 914.89C1685.88 930.89 1699.21 927.74 1699.21 927.74L1698.87 920.76C1707.79 924.51 1716.79 923.87 1716.79 923.87C1698.96 913.91 1695.64 903.06 1695.39 888.51C1695.22 878.47 1695.71 869.11 1696.03 864.26C1702.8 878.43 1717.16 890.02 1741.73 890.29ZM207.55 789.82C207.59 789.63 207.62 789.53 207.62 789.53C207.62 789.53 215.68 783.66 215.17 772.25C214.66 760.85 206.25 741.19 203.87 719.23C201.5 697.27 208.46 676.85 212.36 668.51C212.36 668.51 217.8 690.46 223.24 707.32C228.67 724.17 235.63 752.93 232.58 761.44C229.88 768.95 216.55 782.29 207.55 789.82ZM349.95 900.34C349.95 900.34 345.48 908.04 345.84 919.53C345.84 919.53 347.67 919.31 350.24 917.1C350.24 917.1 350.18 922.94 347.6 927.19C345.03 931.43 341.42 934.15 341.42 934.15C341.42 934.15 352.92 936.7 359.64 932.39C366.36 928.08 371.73 922.37 371.73 922.37C371.73 922.37 373.78 923.61 374.62 927.83C375.47 932.04 373.3 932.98 370.88 932.98C368.47 932.98 366.34 933.44 366.34 937.19C366.34 939.56 366.59 944.17 366.88 947.83C350.51 961.77 329.88 986.6 332.13 1018.94C322.13 1012.19 305.69 1001.35 292.66 994.08C279.35 986.65 257.77 976.2 233.96 969.46C237.24 969.99 240.02 970.38 241.78 970.53C250.12 971.23 252.42 970.53 252.42 970.53C252.42 970.53 256.26 949.27 243.61 924.76C230.96 900.25 228.15 896.68 222.04 881.61C215.93 866.55 215.93 851.4 215.25 840.25C214.56 829.1 216.18 824.12 220.3 822.25C224.42 820.38 246.49 810.55 264 798.21C281.49 785.87 297.88 768.42 297.88 768.42C297.88 768.42 305.18 774.89 304.94 783.4C304.68 791.91 296.62 807.06 293.72 813.61C290.84 820.17 288.54 831.83 295.26 835.91C301.97 840 307.23 843.83 313.43 849.7C319.63 855.57 337.72 876.34 349.95 900.34ZM537.34 623.55C524.61 615.76 518.1 611.42 518.1 611.42C518.1 611.42 530.92 605.47 534.75 588.42C537.04 578.21 533.89 566.55 533.89 566.55C533.89 566.55 541.62 562.75 551 555.7C551.14 577.45 551.24 602.03 551.24 629.02C551.24 630.09 551.26 631.2 551.28 632.3C547.69 629.98 542.92 626.96 537.34 623.55ZM1284.42 629.02C1284.42 683.6 1264.97 773.28 1210.39 861.28C1147.62 962.49 1052.52 1036.59 934.8 1076.2C817.08 1036.59 721.98 962.49 659.21 861.28C604.63 773.28 585.18 683.6 585.18 629.02C585.18 548.72 584.34 489.74 583.87 462.94C628.07 455.47 662.96 420.09 669.82 375.61H1199.78C1206.64 420.09 1241.53 455.47 1285.73 462.94C1285.25 489.74 1284.42 548.85 1284.42 629.02ZM1349.32 623.55C1336.59 631.34 1328.05 637.1 1328.05 637.1C1324.29 640.6 1319.92 643.39 1317.89 644.61C1318.19 639.17 1318.35 633.96 1318.35 629.02C1318.35 595.36 1318.5 565.45 1318.71 540.09C1333.38 557.01 1352.77 566.55 1352.77 566.55C1352.77 566.55 1349.63 578.21 1351.92 588.42C1355.75 605.47 1368.56 611.42 1368.56 611.42C1368.56 611.42 1362.06 615.76 1349.32 623.55ZM1671.41 840.25C1670.73 851.4 1670.73 866.55 1664.61 881.61C1658.49 896.68 1655.7 900.25 1643.04 924.76C1630.39 949.27 1634.23 970.53 1634.23 970.53C1634.23 970.53 1636.53 971.23 1644.87 970.53C1645.25 970.5 1645.69 970.45 1646.15 970.4C1622.58 977.14 1601.26 987.48 1588.06 994.85C1570.91 1004.42 1547.8 1020.2 1541.34 1024.66C1545.74 995.54 1531.3 972.04 1516.37 956.45C1517.69 955.22 1519.04 953.72 1519.26 952.59C1519.71 950.29 1520.33 940.93 1520.33 937.19C1520.33 933.44 1518.2 932.98 1515.78 932.98C1513.37 932.98 1511.2 932.04 1512.05 927.83C1512.9 923.61 1514.93 922.37 1514.93 922.37C1514.93 922.37 1520.31 928.08 1527.03 932.39C1533.75 936.7 1545.24 934.15 1545.24 934.15C1545.24 934.15 1541.65 931.43 1539.06 927.19C1536.49 922.94 1536.42 917.1 1536.42 917.1C1539 919.31 1540.83 919.53 1540.83 919.53C1541.19 908.04 1536.71 900.34 1536.71 900.34C1548.94 876.34 1567.03 855.57 1573.23 849.7C1579.43 843.83 1584.7 840 1591.4 835.91C1598.11 831.83 1595.82 820.17 1592.93 813.61C1590.05 807.06 1581.97 791.91 1581.72 783.4C1581.46 774.89 1588.77 768.42 1588.77 768.42C1588.77 768.42 1605.17 785.87 1622.66 798.21C1640.15 810.55 1662.24 820.38 1666.36 822.25C1670.47 824.12 1672.09 829.1 1671.41 840.25ZM1682.78 719.23C1680.4 741.19 1672 760.85 1671.48 772.25C1670.97 783.66 1679.04 789.53 1679.04 789.53C1679.04 789.53 1679.06 789.63 1679.1 789.82C1670.11 782.29 1656.77 768.95 1654.07 761.44C1651.01 752.93 1657.97 724.17 1663.41 707.32C1668.85 690.46 1674.28 668.51 1674.28 668.51C1678.2 676.85 1685.17 697.27 1682.78 719.23Z" fill="#D8B568"/>
<path d="M90.06 1051.27C135.28 1064.55 139.74 1079.23 225.6 1117.53C311.46 1155.83 345.01 1162.21 394.69 1162.21C444.37 1162.21 485.73 1123.92 499.87 1088.94C499.87 1088.94 466.88 1133.88 414.65 1135.41C362.42 1136.94 320.89 1119.32 269.68 1096.6C218.47 1073.88 151.46 1038.64 85.7301 1033.28C20.0001 1027.92 0.89008 1071.41 0.0400796 1093.37C-0.80992 1115.33 11.6401 1157.78 58.4701 1160.09C101.44 1162.21 103.44 1127.11 102.29 1119.32C101.14 1111.53 97.02 1107.41 96.01 1107.41C95 1107.41 92.4001 1112.9 85.7301 1118.3C79.0601 1123.7 60.42 1140.26 29.42 1128.77C-1.05998 1117.47 0.760072 1081.54 12.2201 1067.62C23.6901 1053.69 44.84 1037.99 90.06 1051.27Z" fill="#D8B568"/>
<path d="M745.89 814.39C752.97 821.18 762.52 825.61 771.77 827.89C783.21 830.6 795.02 831.25 806.64 830.01C838.96 828.2 874.43 813.17 898.37 785.35C922.32 757.52 938.12 707.86 942.8 687.31C943.06 686.17 943.38 684.76 943.75 683.13L944.54 682.39C956.85 702.89 997.37 770.21 1009.92 789.18C1024.78 811.65 1052.98 812.84 1058.07 812.84C1063.17 812.84 1088.94 814.2 1108.18 795.69C1127.42 777.18 1132.04 748.75 1132.04 748.75L1120.83 747.13C1117.86 766.11 1107.07 789.68 1083.46 789.68C1059.85 789.68 1045.16 761.34 1040.23 752.74C1035.99 745.34 991.59 670.5 979.32 649.82L1068.64 566.22C1076.93 558.38 1089.46 553.47 1099.79 554.01C1106.55 554.36 1112.02 556.91 1116.04 561.59L1116.15 561.72C1116.61 562.23 1117.02 562.76 1117.41 563.31C1111.19 559.91 1103.26 559.63 1096.27 563.28C1085.37 568.96 1080.91 581.99 1086.3 592.37C1091.69 602.75 1104.9 606.56 1115.79 600.88C1117.77 599.85 1119.53 598.57 1121.07 597.12L1121.17 597.21L1122.32 595.84C1122.72 595.4 1123.1 594.95 1123.46 594.48L1125.8 591.68C1135.01 580.66 1134.69 564.36 1125.06 553.71C1118.92 546.59 1110.4 542.56 1100.41 542.04C1086.81 541.33 1071.1 547.4 1060.44 557.49L948.54 662.23C956.36 628.17 968.74 574.35 971.37 562.95L1007.8 560.49L1010.5 548.15L877.25 557.15L874.55 569.49L921.3 566.33C916.83 585.24 899.64 657.97 894.34 682.47C888.23 710.73 877.74 752.94 854.3 783.83C831.6 813.75 805.91 818.41 795.98 818.68C795.96 818.68 795.95 818.68 795.93 818.68C795.64 818.69 795.37 818.69 795.11 818.69C788.31 818.65 781.47 817.88 774.71 816.3C745.19 809.29 735.01 781.88 748.52 755.66C750.94 751.06 753.88 746.63 757.68 743.05C768.66 732.8 786.44 728.04 800.91 732.87C807.12 734.89 812.1 739.56 814.99 745.23C808.14 741.44 799.37 741.12 791.65 745.15C779.68 751.39 774.77 765.7 780.7 777.1C786.62 788.51 801.13 792.69 813.1 786.45C818.62 783.57 822.63 778.98 824.78 773.75C825.83 772.12 826.61 770.48 827.31 768.72C833.63 753.63 827.05 735.47 814.18 726.3C805.77 720.33 794.95 718.41 785.05 719.12C769.48 720.29 754.13 727.41 744.39 739.91C727.44 761.55 724.41 794.6 745.89 814.39Z" fill="#D8B568"/>
<path d="M1529.15 1242.8L1531.36 1235.52H1479.09L1477.05 1242.8H1497.86C1493.68 1257.18 1478.35 1309.9 1475.05 1321.78C1471.23 1335.57 1465.45 1356.33 1454.07 1369.52C1442.69 1382.71 1423.75 1385.43 1407.7 1383.22C1391.65 1381.01 1385.36 1365.77 1386.81 1351.3C1387.1 1348.4 1387.73 1344.81 1388.56 1340.86C1392.71 1340.26 1396.94 1339.43 1401.26 1338.37C1425.78 1332.33 1435.81 1316.58 1440.23 1306.8C1444.65 1297.01 1443.29 1284.93 1443.29 1284.93H1435.86C1435.86 1284.93 1437.28 1296.76 1430.91 1308.76C1425.35 1319.23 1410.24 1330.23 1390.02 1334.44C1393.55 1319.71 1398.82 1302.51 1400.65 1295.83C1402.88 1287.67 1412.58 1253.23 1415.46 1242.98C1428.24 1242.98 1435.13 1242.98 1435.13 1242.98L1437.15 1235.62C1437.15 1235.62 1392.33 1235.62 1381.71 1235.62C1371.09 1235.62 1345.19 1239.49 1329.57 1254.05C1313.94 1268.6 1310.63 1281.96 1310.63 1295.24C1310.63 1308.52 1317.08 1326.22 1337.64 1334.73C1345.07 1337.81 1352.45 1339.86 1359.94 1340.97C1359.04 1345.6 1358.52 1349.27 1358.54 1351.58C1358.62 1368.86 1369.84 1382.37 1381.24 1386.39C1392.64 1390.41 1422.45 1396.86 1445.76 1386.39C1469.07 1375.92 1476.97 1345.92 1480.79 1332.65C1484.33 1320.37 1504.16 1252.86 1507.11 1242.82H1529.15V1242.8ZM1322.78 1313.52C1313.52 1300.07 1317.68 1274.2 1330.76 1262.46C1343.56 1250.96 1358.58 1243.3 1387.01 1242.99C1383.1 1255.63 1367.48 1306.61 1361.18 1334.98C1344.16 1331.95 1329.54 1323.33 1322.78 1313.52Z" fill="#D8B568"/>
<path d="M482 1242.37C478.76 1237.96 474.05 1235.28 468.38 1234.61C460.65 1233.69 451.46 1236.69 445 1242.22L377.22 1299.66C382.96 1279.93 392.05 1248.76 393.98 1242.16L414.85 1242.05L416.86 1234.9L340.51 1235.3L338.5 1242.45L365.28 1242.31C362.02 1253.26 349.48 1295.36 345.53 1309.57C340.98 1325.95 333.4 1350.37 318.87 1367.66C304.79 1384.41 289.96 1386.21 284.29 1386C284.28 1386 284.27 1386 284.26 1386C284.1 1385.99 283.94 1385.99 283.79 1385.98C279.91 1385.71 276.04 1385 272.24 1383.83C255.67 1378.63 250.89 1362.14 259.58 1347.23C261.13 1344.61 262.98 1342.12 265.28 1340.16C271.93 1334.54 282.25 1332.39 290.32 1335.77C293.79 1337.19 296.45 1340.11 297.89 1343.55C294.13 1341.07 289.13 1340.56 284.58 1342.65C277.52 1345.88 274.18 1354.11 277.13 1361.03C280.08 1367.95 288.2 1370.94 295.26 1367.71C298.52 1366.22 300.98 1363.67 302.4 1360.68C303.06 1359.76 303.56 1358.83 304.03 1357.82C308.2 1349.18 305.13 1338.27 298.14 1332.41C293.57 1328.59 287.47 1327.07 281.79 1327.12C272.86 1327.24 263.84 1330.86 257.81 1337.85C247.33 1349.94 244.35 1369.26 255.86 1381.68C259.64 1385.93 264.92 1388.88 270.11 1390.56C276.53 1392.57 283.25 1393.39 289.92 1393.09C308.43 1393.21 329.22 1385.68 343.93 1370.21C358.64 1354.74 369.52 1326.13 372.97 1314.23C373.16 1313.57 373.4 1312.75 373.67 1311.81L374.15 1311.4C380.4 1323.9 400.98 1364.95 407.42 1376.56C415.05 1390.31 431.09 1392.04 434 1392.23C436.91 1392.42 451.56 1394.16 463.23 1383.99C474.9 1373.82 478.61 1357.29 478.61 1357.29L472.28 1355.93C469.87 1366.97 462.83 1380.43 449.36 1379.56C435.89 1378.69 428.58 1361.5 426.09 1356.27C423.95 1351.77 401.44 1306.16 395.22 1293.55L449.32 1247.7C454.35 1243.4 461.68 1240.97 467.55 1241.67C471.4 1242.13 474.42 1243.82 476.53 1246.72L476.59 1246.8C476.83 1247.11 477.05 1247.44 477.25 1247.78C473.83 1245.56 469.32 1245.1 465.19 1246.99C458.76 1249.93 455.72 1257.42 458.41 1263.72C461.1 1270.02 468.48 1272.74 474.91 1269.8C476.08 1269.27 477.13 1268.58 478.06 1267.78L478.12 1267.83L478.83 1267.07C479.07 1266.83 479.31 1266.57 479.53 1266.31L480.97 1264.75C486.66 1258.57 487.09 1248.98 482 1242.37Z" fill="#D8B568"/>
<path d="M939.11 1242.37C935.87 1237.96 931.17 1235.28 925.49 1234.61C917.76 1233.69 908.57 1236.69 902.11 1242.22L834.33 1299.66C840.07 1279.93 849.16 1248.76 851.09 1242.16L871.96 1242.05L873.97 1234.9L797.62 1235.3L795.61 1242.45L822.39 1242.31C819.13 1253.26 806.59 1295.36 802.64 1309.57C798.09 1325.95 790.51 1350.37 775.98 1367.66C761.9 1384.41 747.07 1386.21 741.4 1386C741.39 1386 741.38 1386 741.37 1386C741.21 1385.99 741.05 1385.99 740.9 1385.98C737.02 1385.71 733.15 1385 729.35 1383.83C712.78 1378.63 708 1362.14 716.69 1347.23C718.24 1344.61 720.09 1342.12 722.39 1340.16C729.04 1334.54 739.36 1332.39 747.43 1335.77C750.9 1337.19 753.56 1340.11 755 1343.55C751.24 1341.07 746.24 1340.56 741.69 1342.65C734.63 1345.88 731.29 1354.11 734.24 1361.03C737.19 1367.95 745.31 1370.94 752.37 1367.71C755.63 1366.22 758.09 1363.67 759.51 1360.68C760.17 1359.76 760.67 1358.83 761.14 1357.82C765.31 1349.18 762.24 1338.27 755.25 1332.41C750.68 1328.59 744.58 1327.07 738.9 1327.12C729.97 1327.24 720.95 1330.86 714.92 1337.85C704.44 1349.94 701.46 1369.26 712.97 1381.68C716.75 1385.93 722.03 1388.88 727.22 1390.56C733.64 1392.57 740.36 1393.39 747.03 1393.09C765.54 1393.21 786.33 1385.68 801.04 1370.21C815.75 1354.74 826.63 1326.13 830.08 1314.23C830.27 1313.57 830.51 1312.75 830.78 1311.81L831.26 1311.4C837.51 1323.9 858.09 1364.95 864.53 1376.56C872.16 1390.31 888.2 1392.04 891.11 1392.23C894.02 1392.42 908.67 1394.16 920.34 1383.99C932.01 1373.82 935.72 1357.29 935.72 1357.29L929.39 1355.93C926.98 1366.97 919.94 1380.43 906.47 1379.56C893 1378.69 885.69 1361.5 883.2 1356.27C881.06 1351.77 858.55 1306.16 852.33 1293.55L906.43 1247.7C911.46 1243.4 918.79 1240.97 924.66 1241.67C928.51 1242.13 931.53 1243.82 933.64 1246.72L933.7 1246.8C933.94 1247.11 934.16 1247.44 934.36 1247.78C930.94 1245.56 926.43 1245.1 922.3 1246.99C915.87 1249.93 912.83 1257.42 915.52 1263.72C918.21 1270.02 925.59 1272.74 932.02 1269.8C933.19 1269.27 934.24 1268.58 935.17 1267.78L935.23 1267.83L935.94 1267.07C936.18 1266.83 936.42 1266.57 936.64 1266.31L938.08 1264.75C943.77 1258.57 944.2 1248.98 939.11 1242.37Z" fill="#D8B568"/>
<path d="M683.93 1380.09C680.36 1381.97 677.09 1380.12 677.34 1373.61C677.59 1367.1 683.07 1351.53 686.89 1337.87C690.71 1324.21 701.16 1287.74 701.16 1287.74H674.03C668.09 1313.19 653.77 1343.55 645.88 1357.65C637.98 1371.76 629.96 1379.48 622.82 1381.68C615.68 1383.88 609.76 1379.35 609.25 1373.41C608.74 1367.47 613.9 1351.2 616.83 1340.67C619.76 1330.14 631.8 1286.73 631.8 1286.73L586.22 1292.45L585.42 1297.83C585.34 1295.56 584.83 1293.43 584.01 1291.77C580.74 1285.17 569.76 1283.22 560.91 1288.75C553.84 1293.17 537.56 1310.28 528.3 1327.64L540.7 1286.01L491.23 1292.74V1300.7L509.57 1298.59L483.88 1388.74H510.46C510.46 1388.74 519.04 1360.4 530.08 1338.7C541.12 1317 552.18 1304.47 558.11 1299.81C558.11 1299.81 558.15 1312.58 571.87 1312.58C581.13 1312.58 584.91 1306.1 585.38 1299.86L601.42 1297.68C601.42 1297.68 596.49 1314.28 591.14 1334.11C585.79 1353.94 582.31 1369.77 584.15 1378.07C585.99 1386.37 604.21 1396.84 623.92 1387.39C643.62 1377.94 653.52 1356.82 653.52 1356.82C649.44 1372.97 647.91 1390.84 670.08 1391.8C692.25 1392.76 703.33 1362.31 703.33 1362.31L696.99 1359.79C692.93 1368.24 687.5 1378.21 683.93 1380.09Z" fill="#D8B568"/>
<path d="M1046.81 1376.76C1042.99 1383.1 1035.86 1386.12 1032.84 1382C1029.83 1377.87 1032.33 1369.87 1037.09 1355.49C1041.85 1341.1 1056.77 1292.1 1056.77 1292.1C1056.77 1292.1 1027.54 1284.12 1003.52 1288.85C979.51 1293.57 963.2 1305.78 949.44 1324.85C938.53 1339.97 936.28 1370.04 949.44 1382.85C962.6 1395.66 990.2 1394.04 1006.6 1372C1006.6 1372 1006.96 1393.46 1028.61 1392.12C1050.26 1390.78 1053.71 1379.1 1058.93 1362.89L1052.31 1360.85C1052.32 1360.85 1050.63 1370.42 1046.81 1376.76ZM1015.61 1330.21C1007.12 1350.89 1004.18 1358.85 997.35 1368.34C990.51 1377.83 984.19 1382.25 978.96 1382.81C973.74 1383.36 967.15 1378.98 967.35 1363.08C967.54 1347.19 973.18 1331.88 985.03 1316.42C996.58 1301.36 1010.34 1294.72 1026.51 1293.83C1026.51 1293.83 1024.1 1309.53 1015.61 1330.21Z" fill="#D8B568"/>
<path d="M1274.88 1375.57C1269.53 1383.78 1266.81 1382.89 1264.65 1382.63C1262.48 1382.37 1259.51 1379.31 1261.47 1370.08C1263.42 1360.85 1271.17 1341.25 1274.61 1332.63C1278.05 1324.01 1285.69 1306.33 1275.31 1295.29C1264.93 1284.25 1247.16 1285.91 1236.46 1291.84C1225.76 1297.78 1212.13 1317.18 1205.5 1330.97L1218.66 1287.18L1168.2 1292.71V1292.72C1168.07 1292.39 1167.94 1292.07 1167.79 1291.77C1164.52 1285.17 1153.54 1283.22 1144.69 1288.75C1137.62 1293.17 1121.34 1310.28 1112.08 1327.64L1124.48 1286.01L1075.01 1292.74V1300.7L1093.35 1298.59L1067.66 1388.74H1094.24C1094.24 1388.74 1102.82 1360.4 1113.86 1338.7C1124.9 1317 1135.96 1304.47 1141.89 1299.81C1141.89 1299.81 1141.93 1312.58 1155.65 1312.58C1164.2 1312.58 1168.08 1307.06 1169 1301.3L1187.97 1298.67L1162.36 1388.75H1189.03C1189.03 1388.75 1193.98 1372.01 1198.95 1359.05C1203.92 1346.09 1215.53 1323.31 1226.15 1309.43C1236.77 1295.55 1243.32 1295.76 1245.67 1295.76C1248.02 1295.76 1254.64 1297.09 1254.64 1307.3C1254.64 1317.51 1247.87 1331.22 1244.62 1339.19C1241.37 1347.17 1234.81 1364.83 1234.81 1373.34C1234.81 1381.85 1240.08 1390.74 1251.92 1390.74C1263.76 1390.74 1268.1 1390.4 1275.78 1383.29C1283.46 1376.18 1288.09 1361.12 1288.09 1361.12L1281.68 1359.72C1281.68 1359.74 1280.24 1367.35 1274.88 1375.57Z" fill="#D8B568"/>
<path d="M1601.97 1306.59C1604.52 1310.13 1611.59 1312.21 1617.89 1308.7C1624.2 1305.19 1626.27 1293.97 1621.68 1288.64C1617.09 1283.31 1608.75 1284.83 1604.86 1287.51C1601.44 1289.87 1562.07 1318.27 1552.76 1324.99L1580.12 1229.62L1531.81 1235.53V1242.81L1549.99 1240.72L1507.47 1388.93H1534.41L1549.69 1335.65L1550.41 1335.12C1554.71 1342.94 1567.97 1367.02 1574.79 1379.42C1583.01 1394.36 1601.41 1395.44 1611.41 1385.29C1621.41 1375.14 1623.32 1362.42 1623.32 1362.42L1616.99 1360.21C1614.06 1372.3 1607.23 1376.81 1603.86 1376.65C1600.48 1376.49 1597.84 1372.51 1594.44 1366.38C1591.41 1360.91 1572.61 1328.54 1568.59 1321.62L1599.84 1298.42C1599.87 1298.42 1599.42 1303.05 1601.97 1306.59Z" fill="#D8B568"/>
</svg>
