<svg xmlns="http://www.w3.org/2000/svg" version="1.1" xmlns:xlink="http://www.w3.org/1999/xlink" width="512" height="512" x="0" y="0" viewBox="0 0 512 512" style="enable-background:new 0 0 512 512" xml:space="preserve"><g><path d="M462.84 329.56a8.04 8.04 0 0 1-8.04-8.04V56.41c0-2.18-1.85-4.01-4.03-4.01h-94.44c-2.21 0-4 1.8-4 4.01v265.11c0 4.44-3.6 8.04-8.04 8.04h-49.16l108.43 125.8 56.88-66.03L512 329.56z" fill="#440861" opacity="1" data-original="#000000"></path><path d="M290.76 313.48h45.5v-154.6c-30.84-41.58-79.84-66.34-131.63-66.34-90.25 0-163.68 73.33-163.68 163.46s73.42 163.46 163.68 163.46c41.1 0 79.91-15.05 110.11-42.53l-34.65-40.2c-3.66-4.22-4.48-10.01-2.11-15.09 2.31-5.01 7.21-8.16 12.78-8.16zm-24.95-17c-.97 13.9-7.76 26.67-18.19 35.82-8.79 7.75-19.43 12.38-30.71 14.35v19.38c0 6.57-5.37 11.9-11.91 11.9h-2.64c-6.58 0-11.91-5.33-11.91-11.9v-19.68c-14.19-3.09-26.83-11.02-35.74-22.41-2.33-2.97-3.09-6.51-2.18-10.17s3.21-6.45 6.67-7.99l2.49-1.12c5-2.27 10.73-.91 14.19 3.39a35.718 35.718 0 0 0 27.8 13.29c9.52 0 19.19-2.48 26.47-8.87 5.18-4.57 8.79-10.9 9.28-17.86 1.39-19.2-19.34-25.22-34.92-25.37-16.73-.18-33.98-4.42-46.44-16.2-10.4-9.78-15.61-23.31-14.61-37.51 1-13.87 7.79-26.64 18.19-35.82 8.82-7.72 19.46-12.35 30.74-14.32v-19.41c0-6.54 5.34-11.9 11.91-11.9h2.64c6.55 0 11.91 5.36 11.91 11.9v19.68a62.024 62.024 0 0 1 35.71 22.44c2.33 2.97 3.09 6.51 2.18 10.17-.88 3.66-3.21 6.45-6.64 7.99l-2.49 1.12c-5.03 2.27-10.76.91-14.19-3.39a35.733 35.733 0 0 0-27.83-13.29c-9.52 0-19.19 2.48-26.47 8.87-5.15 4.54-8.76 10.9-9.28 17.83-1.36 19.23 19.34 25.22 34.92 25.4 16.73.18 34.02 4.42 46.48 16.17 10.36 9.81 15.6 23.34 14.57 37.51z" fill="#440861" opacity="1" data-original="#000000"></path><path d="M204.63 435.53c-99.11 0-179.75-80.54-179.75-179.53S105.52 76.47 204.63 76.47c50.1 0 97.83 21.1 131.63 57.33V99.54a204.734 204.734 0 0 0-131.63-47.91C91.8 51.64 0 143.31 0 256s91.8 204.36 204.63 204.36c50.91 0 99.19-18.57 136.83-52.43l-16.22-18.82c-33.12 30-75.62 46.42-120.61 46.42z" fill="#440861" opacity="1" data-original="#000000"></path></g></svg>