<svg xmlns="http://www.w3.org/2000/svg" xmlns:xlink="http://www.w3.org/1999/xlink" version="1.1" width="512" height="512" x="0" y="0" viewBox="0 0 512 512" style="enable-background:new 0 0 512 512" xml:space="preserve" class=""><g><path d="M375.999 181.005C301.557 181.005 241 241.561 241 316.003s60.556 134.998 134.998 134.998 135.998-60.556 135.998-134.998-61.555-134.998-135.997-134.998zm15.394 207.287c-.13.048-.266.026-.396.071v17.639c0 8.291-6.709 15-15 15s-15-6.709-15-15v-17.741c-9.879-3.338-19.345-9.672-27.437-19.319-5.332-6.343-4.512-15.806 1.846-21.123 6.343-5.332 15.835-4.512 21.123 1.846 7.939 9.448 16.919 13.198 24.595 10.444 5.903-2.153 9.873-7.822 9.873-14.106 0-8.276-6.724-15-15-15-24.814 0-44.999-20.186-44.999-44.999a44.93 44.93 0 0 1 27.466-41.454c.826-.35 1.701-.33 2.534-.628v-17.917c0-8.291 6.709-15 15-15s15 6.709 15 15v17.944c7.767 2.624 15.341 6.795 22.104 13.345 5.947 5.757 6.094 15.249.322 21.211-5.757 5.947-15.264 6.079-21.211.322-7.295-7.075-15.366-9.507-22.046-6.65a14.992 14.992 0 0 0-9.17 13.828c0 8.276 6.724 15 15 15 24.814 0 44.999 20.186 44.999 44.999.002 18.851-11.893 35.843-29.603 42.288zM15.004 331.003c-8.291 0-15 6.709-15 15v150.998c0 8.291 6.709 15 15 15h44.999V331.003H15.004z" fill="#bababa" opacity="1" data-original="#000000" class=""/><path d="M355.755 93.624 250.756 3.625c-5.596-4.834-13.916-4.834-19.512 0L126.246 93.624a14.955 14.955 0 0 0-4.307 16.582 14.977 14.977 0 0 0 14.063 9.8h44.999v391.995H286c8.291 0 15-6.709 15-15v-34.214c-53.342-27.369-89.999-82.819-89.999-146.783 0-63.963 36.658-119.414 89.999-146.783v-49.214h44.999a14.978 14.978 0 0 0 14.063-9.8 14.953 14.953 0 0 0-4.307-16.583z" fill="#bababa" opacity="1" data-original="#000000" class=""/><path d="M106.002 211.005c-8.291 0-15 6.709-15 15V512h59.999V211.005h-44.999z" fill="#bababa" opacity="1" data-original="#000000" class=""/></g></svg>