<svg xmlns="http://www.w3.org/2000/svg" version="1.1" xmlns:xlink="http://www.w3.org/1999/xlink" width="512" height="512" x="0" y="0" viewBox="0 0 512 512" style="enable-background:new 0 0 512 512" xml:space="preserve" class=""><g><path fill="#ffffff" d="M464.866 112.467c-53.742 0-97.465-43.724-97.465-97.467 0-8.284-6.716-15-15-15h-80.334c-8.284 0-15 6.716-15 15v329.368c0 31.594-25.705 57.298-57.301 57.298-31.595 0-57.299-25.704-57.299-57.298 0-31.597 25.704-57.302 57.299-57.302 8.284 0 15-6.716 15-15v-80.334c0-8.284-6.716-15-15-15-92.433 0-167.633 75.201-167.633 167.636 0 92.433 75.2 167.632 167.633 167.632 92.435 0 167.635-75.199 167.635-167.632V198.577c29.855 15.915 63.073 24.224 97.465 24.224 8.284 0 15-6.716 15-15v-80.334c0-8.284-6.716-15-15-15z" opacity="1" data-original="#132f3b" class=""></path><path fill="#ffffff" d="M464.866 112.467c-53.742 0-97.465-43.724-97.465-97.467 0-8.284-6.716-15-15-15h-80.334c-8.284 0-15 6.716-15 15V501.91c64.302-23.46 110.334-85.226 110.334-157.542V198.577c29.855 15.915 63.073 24.224 97.465 24.224 8.284 0 15-6.716 15-15v-80.334c0-8.284-6.716-15-15-15z" opacity="1" data-original="#0e232c" class=""></path></g></svg>